<svg id="svg" version="1.1" width="400" height="400" viewBox="0 0 400 400" xmlns="http://www.w3.org/2000/svg" xmlns:xlink="http://www.w3.org/1999/xlink"><g id="svgg"><path id="path0" d="M200.256 35.197 C 196.744 36.569,195.200 38.847,195.200 42.658 C 195.200 47.352,193.845 45.968,218.574 66.533 C 225.408 72.217,231.452 77.257,232.004 77.733 C 232.556 78.210,233.996 79.408,235.204 80.395 C 236.412 81.381,237.490 82.286,237.600 82.404 C 237.710 82.522,239.870 84.335,242.400 86.432 C 254.725 96.652,267.689 107.446,270.404 109.748 C 270.956 110.217,272.394 111.410,273.600 112.400 C 274.806 113.390,276.244 114.590,276.796 115.066 C 277.348 115.542,283.391 120.582,290.224 126.266 C 297.058 131.950,306.328 139.670,310.824 143.422 C 321.673 152.475,323.577 153.894,327.823 156.087 C 345.864 165.405,367.320 162.096,381.736 147.774 C 387.107 142.437,387.884 138.229,384.261 134.103 C 380.450 129.762,375.893 130.259,370.400 135.616 C 361.007 144.775,349.110 147.180,337.400 142.286 C 333.998 140.865,331.113 138.667,314.994 125.220 C 306.411 118.059,296.241 109.597,292.394 106.416 C 288.547 103.235,285.310 100.533,285.200 100.411 C 285.090 100.289,284.011 99.381,282.801 98.395 C 281.592 97.408,280.062 96.125,279.401 95.545 C 278.741 94.965,272.620 89.865,265.800 84.210 C 258.980 78.556,252.948 73.541,252.396 73.065 C 251.844 72.589,250.406 71.390,249.200 70.400 C 247.994 69.410,246.556 68.211,246.004 67.736 C 245.452 67.261,237.170 60.356,227.600 52.393 C 218.030 44.429,209.674 37.454,209.031 36.892 C 206.401 34.594,203.322 33.999,200.256 35.197 M180.133 58.136 C 173.434 62.879,173.224 68.089,179.523 73.253 C 181.216 74.640,182.690 75.873,182.800 75.993 C 182.910 76.113,183.990 77.016,185.200 78.000 C 186.410 78.984,187.490 79.887,187.600 80.008 C 187.759 80.182,204.996 94.539,207.555 96.629 C 208.913 97.738,219.449 106.520,220.404 107.339 C 220.956 107.813,222.394 109.010,223.600 110.000 C 224.806 110.990,226.244 112.189,226.796 112.664 C 227.348 113.140,231.850 116.892,236.800 121.002 C 241.750 125.112,246.610 129.155,247.600 129.988 C 248.590 130.820,251.200 132.988,253.400 134.805 C 255.600 136.622,258.300 138.873,259.400 139.807 C 260.500 140.742,265.450 144.874,270.400 148.989 C 275.350 153.104,279.852 156.860,280.404 157.335 C 280.956 157.811,282.396 159.008,283.604 159.995 C 284.812 160.981,285.890 161.884,286.000 162.000 C 286.110 162.116,287.187 163.019,288.394 164.005 C 289.600 164.992,290.950 166.097,291.394 166.460 C 291.837 166.823,293.069 167.860,294.131 168.766 C 299.189 173.077,302.620 172.722,306.750 167.460 C 308.478 165.258,308.586 164.976,308.593 162.644 C 308.603 159.217,308.557 159.165,297.507 149.986 C 292.168 145.552,287.348 141.536,286.796 141.062 C 286.244 140.588,284.804 139.392,283.596 138.405 C 282.388 137.419,281.310 136.516,281.200 136.400 C 281.090 136.284,280.012 135.381,278.804 134.395 C 277.596 133.408,276.156 132.213,275.604 131.739 C 275.052 131.266,267.850 125.262,259.600 118.397 C 251.350 111.532,244.150 105.530,243.599 105.058 C 243.049 104.586,240.529 102.480,237.999 100.377 C 235.470 98.275,228.018 92.065,221.441 86.577 C 214.863 81.090,208.743 76.002,207.841 75.271 C 206.938 74.540,205.749 73.550,205.199 73.071 C 202.345 70.589,188.026 58.831,186.938 58.076 C 185.189 56.862,181.891 56.891,180.133 58.136 M129.800 67.636 C 114.830 69.425,98.325 79.962,97.329 88.366 C 96.311 96.965,105.827 100.528,112.355 93.992 C 126.000 80.331,141.420 80.498,157.666 94.482 C 158.253 94.987,159.066 95.670,159.473 96.000 C 162.312 98.303,164.630 100.223,164.800 100.412 C 164.910 100.534,172.110 106.539,180.800 113.756 C 189.490 120.972,197.052 127.264,197.604 127.738 C 198.156 128.212,199.596 129.408,200.804 130.395 C 202.012 131.381,203.090 132.286,203.200 132.404 C 203.310 132.522,205.470 134.334,208.000 136.431 C 216.105 143.151,233.375 157.532,236.004 159.752 C 236.556 160.219,237.994 161.410,239.200 162.400 C 240.406 163.390,241.844 164.589,242.396 165.065 C 257.254 177.873,276.474 193.291,278.317 193.880 C 284.825 195.961,290.918 188.901,288.054 182.597 C 287.203 180.724,285.970 179.615,269.800 166.186 C 263.200 160.705,257.350 155.830,256.800 155.353 C 256.250 154.877,242.750 143.630,226.800 130.362 C 210.850 117.094,197.710 106.137,197.600 106.014 C 197.490 105.890,196.410 104.982,195.200 103.996 C 193.990 103.010,192.800 102.023,192.556 101.802 C 188.915 98.504,161.998 76.490,159.881 75.079 C 151.040 69.183,139.905 66.428,129.800 67.636 " stroke="none" fill="#c9b652" fill-rule="evenodd"></path><path id="path1" d="M235.407 15.768 C 234.531 16.299,233.091 17.622,232.207 18.710 C 231.323 19.797,228.814 22.802,226.630 25.388 C 223.733 28.820,222.761 30.238,223.030 30.637 C 223.669 31.583,234.529 40.400,235.055 40.400 C 235.331 40.400,237.322 38.307,239.478 35.749 C 241.635 33.190,243.897 30.535,244.504 29.849 C 251.449 21.990,244.049 10.537,235.407 15.768 M282.400 54.137 C 280.208 55.249,268.485 68.786,269.241 69.330 C 269.583 69.576,274.212 73.412,274.400 73.605 C 274.510 73.719,275.590 74.618,276.800 75.605 C 278.010 76.592,279.448 77.805,279.996 78.300 C 281.513 79.671,281.589 79.615,286.979 73.193 C 293.356 65.596,293.732 64.948,293.750 61.528 C 293.784 55.211,287.869 51.359,282.400 54.137 M330.400 92.800 C 330.400 93.020,330.032 93.200,329.583 93.200 C 329.134 93.200,328.380 93.560,327.908 94.000 C 327.436 94.440,326.831 94.800,326.565 94.800 C 326.299 94.800,323.964 97.365,321.377 100.500 C 318.790 103.635,316.390 106.531,316.042 106.936 C 315.456 107.620,315.510 107.761,316.818 108.936 C 319.687 111.513,321.341 112.800,321.786 112.800 C 322.038 112.800,322.916 113.385,323.738 114.100 C 324.560 114.815,325.837 115.897,326.577 116.505 L 327.921 117.610 330.374 114.705 C 331.723 113.107,333.412 111.163,334.126 110.384 C 334.841 109.606,335.861 108.346,336.394 107.584 C 336.926 106.823,337.641 105.928,337.981 105.596 C 338.824 104.773,339.600 103.339,339.600 102.605 C 339.600 102.272,339.780 102.000,340.000 102.000 C 340.220 102.000,340.400 101.190,340.400 100.200 C 340.400 99.210,340.220 98.400,340.000 98.400 C 339.780 98.400,339.600 98.016,339.600 97.547 C 339.600 96.547,336.407 93.200,335.453 93.200 C 335.094 93.200,334.800 93.020,334.800 92.800 C 334.800 92.580,333.810 92.400,332.600 92.400 C 331.390 92.400,330.400 92.580,330.400 92.800 M154.516 112.042 C 153.902 112.740,153.216 113.511,152.991 113.756 C 148.879 118.222,143.675 125.576,140.930 130.800 C 137.594 137.151,135.998 141.964,133.968 151.800 C 133.299 155.043,133.299 168.585,133.968 172.200 C 135.019 177.877,136.657 183.906,138.017 187.100 C 138.228 187.595,138.556 188.405,138.746 188.900 C 138.937 189.395,139.288 190.250,139.526 190.800 C 142.769 198.282,143.187 207.915,140.613 215.800 C 139.354 219.654,138.561 221.293,136.256 224.800 C 134.752 227.088,127.941 235.395,126.417 236.800 C 126.298 236.910,124.850 238.530,123.200 240.400 C 121.550 242.270,119.639 244.430,118.953 245.200 C 115.613 248.950,106.796 258.944,105.328 260.643 C 103.853 262.351,99.347 267.450,97.593 269.396 C 95.666 271.533,90.918 276.912,88.975 279.159 C 88.329 279.906,87.065 281.346,86.167 282.359 C 85.269 283.371,82.929 286.011,80.967 288.224 C 79.005 290.438,76.230 293.568,74.800 295.181 C 73.370 296.794,71.871 298.493,71.469 298.957 C 71.067 299.421,70.167 300.430,69.469 301.200 C 68.770 301.970,65.680 305.480,62.601 309.000 C 59.522 312.520,56.912 315.490,56.802 315.600 C 56.628 315.772,54.150 318.567,49.360 323.995 C 40.442 334.100,38.201 336.630,38.016 336.800 C 37.897 336.910,36.630 338.350,35.200 340.000 C 33.770 341.650,32.509 343.090,32.397 343.200 C 32.285 343.310,30.935 344.840,29.396 346.600 C 27.858 348.360,26.510 349.890,26.400 350.000 C 26.290 350.110,24.850 351.730,23.200 353.600 C 21.550 355.470,20.105 357.090,19.990 357.200 C 10.599 366.123,11.583 379.328,21.993 384.092 C 23.892 384.961,31.615 385.191,33.141 384.424 C 33.504 384.242,34.337 383.847,34.994 383.547 C 36.933 382.659,40.360 379.556,42.002 377.200 C 42.538 376.430,43.387 375.352,43.889 374.804 C 44.390 374.256,44.800 373.699,44.800 373.565 C 44.800 373.432,45.115 372.956,45.500 372.509 C 45.885 372.061,47.280 370.306,48.600 368.608 C 49.920 366.910,51.270 365.202,51.600 364.814 C 51.930 364.425,52.650 363.517,53.200 362.797 C 53.750 362.077,54.785 360.848,55.500 360.066 C 56.215 359.284,56.800 358.475,56.800 358.269 C 56.800 358.063,57.124 357.603,57.519 357.247 C 57.914 356.891,58.677 355.970,59.213 355.200 C 59.750 354.430,60.489 353.440,60.857 353.000 C 61.224 352.560,62.447 351.030,63.575 349.600 C 64.703 348.170,65.847 346.730,66.118 346.400 C 66.389 346.070,67.050 345.170,67.587 344.400 C 68.123 343.630,68.849 342.730,69.200 342.400 C 69.551 342.070,70.271 341.170,70.800 340.400 C 71.329 339.630,72.049 338.730,72.400 338.400 C 72.751 338.070,73.477 337.170,74.013 336.400 C 74.550 335.630,75.208 334.730,75.476 334.400 C 75.744 334.070,77.093 332.360,78.473 330.600 C 79.854 328.840,81.086 327.310,81.211 327.200 C 81.336 327.090,81.876 326.370,82.411 325.600 C 82.945 324.830,83.792 323.787,84.291 323.282 C 84.791 322.777,85.203 322.237,85.206 322.082 C 85.210 321.927,85.705 321.241,86.306 320.557 C 86.908 319.873,87.850 318.724,88.400 318.003 C 88.950 317.283,89.670 316.373,90.000 315.980 C 90.918 314.890,91.625 313.995,93.790 311.184 C 94.885 309.763,96.010 308.362,96.290 308.071 C 96.571 307.781,96.800 307.419,96.800 307.267 C 96.800 307.116,97.205 306.544,97.700 305.996 C 98.195 305.448,99.092 304.341,99.694 303.535 C 100.296 302.729,101.016 301.829,101.294 301.535 C 101.572 301.241,102.275 300.370,102.855 299.600 C 103.435 298.830,104.245 297.810,104.655 297.334 C 106.071 295.687,106.615 294.994,107.587 293.600 C 108.123 292.830,108.852 291.930,109.206 291.600 C 109.560 291.270,110.422 290.190,111.122 289.200 C 111.821 288.210,113.340 286.198,114.497 284.729 C 115.654 283.259,117.408 281.009,118.397 279.729 C 119.385 278.448,120.473 277.130,120.816 276.800 C 121.158 276.470,121.871 275.570,122.400 274.800 C 122.929 274.030,123.686 273.109,124.081 272.753 C 124.476 272.397,124.801 271.947,124.802 271.753 C 124.803 271.559,125.298 270.859,125.902 270.197 C 126.506 269.536,128.079 267.556,129.398 265.797 C 130.717 264.039,132.025 262.359,132.304 262.065 C 132.583 261.771,133.302 260.871,133.902 260.065 C 134.501 259.259,135.308 258.309,135.696 257.953 C 136.083 257.597,136.401 257.147,136.402 256.953 C 136.403 256.759,136.904 256.060,137.515 255.400 C 138.126 254.740,139.061 253.570,139.594 252.800 C 140.126 252.030,140.842 251.130,141.184 250.800 C 141.527 250.470,142.614 249.120,143.601 247.800 C 148.430 241.343,153.549 235.644,154.549 235.611 C 154.741 235.605,156.233 234.790,157.864 233.800 C 159.494 232.810,160.914 232.000,161.019 232.000 C 161.123 232.000,161.972 231.650,162.904 231.221 C 163.837 230.793,165.770 230.092,167.200 229.663 C 174.259 227.547,178.883 227.535,189.000 229.610 C 195.138 230.869,207.866 231.064,213.227 229.981 C 215.581 229.505,222.967 227.306,224.095 226.746 C 224.477 226.556,225.152 226.400,225.595 226.400 C 226.038 226.400,226.400 226.220,226.400 226.000 C 226.400 225.780,226.715 225.601,227.100 225.603 C 227.875 225.607,234.522 222.386,234.733 221.904 C 234.807 221.737,235.129 221.600,235.450 221.600 C 235.771 221.600,236.420 221.240,236.892 220.800 C 237.364 220.360,237.987 220.000,238.275 220.000 C 238.564 220.000,238.800 219.820,238.800 219.600 C 238.800 219.380,239.036 219.200,239.325 219.200 C 239.613 219.200,240.198 218.880,240.625 218.489 C 241.051 218.098,242.030 217.336,242.800 216.796 C 246.312 214.333,251.809 209.244,253.743 206.665 C 254.372 205.827,255.455 204.569,256.150 203.870 C 256.845 203.172,257.854 201.970,258.393 201.200 C 258.933 200.430,259.605 199.562,259.887 199.271 C 260.471 198.670,260.564 198.000,260.064 198.000 C 259.879 198.000,258.907 197.235,257.903 196.300 C 256.900 195.365,255.724 194.305,255.288 193.945 C 254.853 193.585,254.430 193.135,254.348 192.945 C 254.044 192.237,249.240 188.400,248.657 188.400 C 248.324 188.400,246.978 189.705,245.665 191.300 C 239.236 199.113,234.149 201.786,225.800 201.736 C 206.048 201.618,197.005 176.379,211.993 163.200 C 212.118 163.090,212.793 162.264,213.492 161.365 L 214.764 159.730 211.917 157.365 C 210.350 156.064,208.622 154.640,208.075 154.200 C 207.529 153.760,206.073 152.547,204.841 151.504 C 202.137 149.216,201.992 149.202,200.575 151.100 C 190.289 164.872,174.735 167.299,164.364 156.751 C 155.583 147.820,155.904 136.054,165.233 124.846 C 168.477 120.948,168.472 120.975,166.288 119.327 C 165.359 118.626,164.240 117.726,163.800 117.325 C 162.502 116.144,156.642 111.363,156.116 111.055 C 155.829 110.887,155.176 111.290,154.516 112.042 " stroke="none" fill="#747474" fill-rule="evenodd"></path><path id="path2" d="M234.200 0.800 C 234.064 1.020,233.423 1.200,232.776 1.200 C 232.129 1.200,231.600 1.380,231.600 1.600 C 231.600 1.820,231.195 2.004,230.700 2.009 C 230.205 2.014,229.350 2.370,228.800 2.800 C 228.250 3.230,227.575 3.586,227.300 3.591 C 227.025 3.596,226.800 3.780,226.800 4.000 C 226.800 4.220,226.617 4.400,226.393 4.400 C 225.987 4.400,220.800 9.400,220.800 9.791 C 220.800 9.904,219.900 10.915,218.800 12.039 C 217.700 13.162,216.800 14.242,216.800 14.439 C 216.800 14.635,215.900 15.715,214.800 16.839 C 213.700 17.962,212.800 19.051,212.800 19.259 C 212.800 19.466,212.358 20.078,211.818 20.618 C 210.851 21.585,208.800 21.981,208.800 21.200 C 208.800 20.951,206.467 20.800,202.600 20.800 C 198.733 20.800,196.400 20.951,196.400 21.200 C 196.400 21.420,196.057 21.600,195.638 21.600 C 194.680 21.600,191.612 23.170,190.753 24.100 C 190.397 24.485,189.895 24.800,189.636 24.800 C 189.378 24.800,188.900 25.025,188.575 25.300 C 186.480 27.071,185.600 27.976,185.600 28.360 C 185.600 28.602,185.420 28.800,185.200 28.800 C 184.980 28.800,184.800 29.070,184.800 29.400 C 184.800 29.730,184.653 30.000,184.474 30.000 C 184.008 30.000,182.400 33.131,182.400 34.038 C 182.400 34.457,182.220 34.800,182.000 34.800 C 181.780 34.800,181.600 35.329,181.600 35.976 C 181.600 36.623,181.420 37.264,181.200 37.400 C 180.980 37.536,180.800 38.897,180.800 40.424 L 180.800 43.200 179.024 43.200 C 178.047 43.200,177.136 43.380,177.000 43.600 C 176.864 43.820,176.313 44.000,175.776 44.000 C 175.239 44.000,174.800 44.180,174.800 44.400 C 174.800 44.620,174.440 44.800,174.000 44.800 C 173.560 44.800,173.200 44.968,173.200 45.173 C 173.200 45.378,172.821 45.667,172.357 45.814 C 171.342 46.136,165.200 52.251,165.200 52.939 C 165.200 53.205,164.840 53.683,164.400 54.000 C 163.960 54.317,163.600 54.897,163.600 55.288 C 163.600 55.680,163.465 56.001,163.300 56.003 C 162.929 56.007,162.000 57.954,162.000 58.726 C 162.000 59.124,161.731 59.217,161.100 59.037 C 160.605 58.896,159.705 58.673,159.100 58.540 C 158.495 58.408,158.000 58.142,158.000 57.950 C 158.000 57.757,157.550 57.600,157.000 57.600 C 156.450 57.600,156.000 57.420,156.000 57.200 C 156.000 56.980,155.550 56.800,155.000 56.800 C 154.450 56.800,154.000 56.620,154.000 56.400 C 154.000 56.180,153.370 56.000,152.600 56.000 C 151.830 56.000,151.200 55.820,151.200 55.600 C 151.200 55.380,150.671 55.200,150.024 55.200 C 149.377 55.200,148.736 55.020,148.600 54.800 C 148.464 54.580,147.373 54.400,146.176 54.400 C 144.979 54.400,144.000 54.220,144.000 54.000 C 144.000 53.744,140.533 53.600,134.400 53.600 C 128.267 53.600,124.800 53.744,124.800 54.000 C 124.800 54.220,123.900 54.400,122.800 54.400 C 121.700 54.400,120.800 54.580,120.800 54.800 C 120.800 55.020,120.080 55.200,119.200 55.200 C 118.320 55.200,117.600 55.380,117.600 55.600 C 117.600 55.820,117.060 56.000,116.400 56.000 C 115.740 56.000,115.200 56.180,115.200 56.400 C 115.200 56.620,114.660 56.800,114.000 56.800 C 113.340 56.800,112.800 56.980,112.800 57.200 C 112.800 57.420,112.350 57.600,111.800 57.600 C 111.250 57.600,110.800 57.780,110.800 58.000 C 110.800 58.220,110.485 58.401,110.100 58.402 C 109.715 58.404,108.884 58.674,108.254 59.002 C 107.624 59.331,106.859 59.600,106.554 59.600 C 106.249 59.600,105.997 59.735,105.994 59.900 C 105.990 60.065,105.090 60.640,103.994 61.179 C 102.897 61.717,102.000 62.302,102.000 62.479 C 102.000 62.655,101.764 62.800,101.475 62.800 C 101.187 62.800,100.564 63.160,100.092 63.600 C 99.620 64.040,99.068 64.400,98.865 64.400 C 98.662 64.400,97.755 65.120,96.848 66.000 C 95.941 66.880,95.097 67.600,94.972 67.600 C 94.584 67.600,88.800 73.660,88.800 74.067 C 88.800 74.278,88.260 74.906,87.600 75.461 C 86.940 76.017,86.400 76.725,86.400 77.036 C 86.400 77.346,86.220 77.600,86.000 77.600 C 85.780 77.600,85.600 77.960,85.600 78.400 C 85.600 78.840,85.420 79.200,85.200 79.200 C 84.980 79.200,84.800 79.560,84.800 80.000 C 84.800 80.440,84.620 80.800,84.400 80.800 C 84.180 80.800,84.000 81.340,84.000 82.000 C 84.000 82.660,83.820 83.200,83.600 83.200 C 83.061 83.200,83.061 94.667,83.600 95.000 C 83.820 95.136,84.000 95.766,84.000 96.400 C 84.000 97.034,84.180 97.664,84.400 97.800 C 84.620 97.936,84.800 98.397,84.800 98.824 C 84.800 99.251,84.980 99.600,85.200 99.600 C 85.420 99.600,85.600 99.920,85.600 100.312 C 85.600 100.703,85.960 101.283,86.400 101.600 C 86.840 101.917,87.200 102.422,87.200 102.723 C 87.200 103.402,91.400 107.483,92.438 107.812 C 92.857 107.945,93.200 108.222,93.200 108.427 C 93.200 108.632,93.560 108.800,94.000 108.800 C 94.440 108.800,94.800 108.980,94.800 109.200 C 94.800 109.420,95.160 109.600,95.600 109.600 C 96.040 109.600,96.400 109.780,96.400 110.000 C 96.400 110.220,96.940 110.400,97.600 110.400 C 98.260 110.400,98.800 110.580,98.800 110.800 C 98.800 111.022,99.867 111.200,101.200 111.200 C 102.533 111.200,103.600 111.378,103.600 111.600 C 103.600 111.820,104.410 112.000,105.400 112.000 C 106.390 112.000,107.200 111.820,107.200 111.600 C 107.200 111.378,108.267 111.200,109.600 111.200 C 110.933 111.200,112.000 111.022,112.000 110.800 C 112.000 110.580,112.540 110.400,113.200 110.400 C 113.860 110.400,114.400 110.220,114.400 110.000 C 114.400 109.780,114.760 109.600,115.200 109.600 C 115.640 109.600,116.000 109.420,116.000 109.200 C 116.000 108.980,116.360 108.800,116.800 108.800 C 117.240 108.800,117.600 108.642,117.600 108.449 C 117.600 108.255,118.133 107.876,118.785 107.606 C 119.436 107.336,121.410 105.605,123.171 103.758 C 124.932 101.911,126.649 100.400,126.987 100.400 C 127.324 100.400,127.600 100.220,127.600 100.000 C 127.600 99.780,127.960 99.600,128.400 99.600 C 128.840 99.600,129.200 99.420,129.200 99.200 C 129.200 98.980,129.920 98.800,130.800 98.800 C 131.680 98.800,132.400 98.620,132.400 98.400 C 132.400 98.180,133.300 98.000,134.400 98.000 C 135.500 98.000,136.400 98.180,136.400 98.400 C 136.400 98.620,137.120 98.800,138.000 98.800 C 138.880 98.800,139.600 98.980,139.600 99.200 C 139.600 99.420,139.960 99.600,140.400 99.600 C 140.840 99.600,141.200 99.780,141.200 100.000 C 141.200 100.220,141.442 100.400,141.738 100.400 C 144.198 100.400,143.500 103.373,140.312 106.469 C 139.480 107.276,138.800 108.041,138.800 108.168 C 138.800 108.295,138.080 109.141,137.200 110.048 C 136.320 110.955,135.600 111.856,135.600 112.052 C 135.600 112.247,135.060 112.972,134.400 113.663 C 133.740 114.354,133.200 115.079,133.200 115.276 C 133.200 115.473,132.840 116.020,132.400 116.492 C 131.960 116.964,131.600 117.587,131.600 117.875 C 131.600 118.164,131.420 118.400,131.200 118.400 C 130.980 118.400,130.800 118.678,130.800 119.017 C 130.800 119.356,130.440 120.020,130.000 120.492 C 129.560 120.964,129.200 121.587,129.200 121.875 C 129.200 122.164,129.020 122.400,128.800 122.400 C 128.580 122.400,128.400 122.760,128.400 123.200 C 128.400 123.640,128.220 124.000,128.000 124.000 C 127.780 124.000,127.600 124.345,127.600 124.767 C 127.600 125.188,127.447 125.593,127.260 125.667 C 126.843 125.831,124.800 130.896,124.800 131.768 C 124.800 132.116,124.620 132.400,124.400 132.400 C 124.180 132.400,124.000 132.940,124.000 133.600 C 124.000 134.260,123.820 134.800,123.600 134.800 C 123.380 134.800,123.200 135.340,123.200 136.000 C 123.200 136.660,123.020 137.200,122.800 137.200 C 122.580 137.200,122.400 137.740,122.400 138.400 C 122.400 139.060,122.220 139.600,122.000 139.600 C 121.780 139.600,121.600 140.320,121.600 141.200 C 121.600 142.080,121.420 142.800,121.200 142.800 C 120.980 142.800,120.800 143.599,120.800 144.576 C 120.800 145.553,120.620 146.464,120.400 146.600 C 120.180 146.736,120.000 148.007,120.000 149.424 C 120.000 150.875,119.825 152.000,119.600 152.000 C 119.054 152.000,119.054 171.863,119.600 172.200 C 119.820 172.336,120.000 173.607,120.000 175.024 C 120.000 176.475,120.175 177.600,120.400 177.600 C 120.620 177.600,120.800 178.399,120.800 179.376 C 120.800 180.353,120.980 181.264,121.200 181.400 C 121.420 181.536,121.600 182.267,121.600 183.024 C 121.600 183.781,121.780 184.400,122.000 184.400 C 122.220 184.400,122.400 185.030,122.400 185.800 C 122.400 186.570,122.580 187.200,122.800 187.200 C 123.020 187.200,123.200 187.740,123.200 188.400 C 123.200 189.060,123.380 189.600,123.600 189.600 C 123.820 189.600,124.000 190.050,124.000 190.600 C 124.000 191.150,124.137 191.600,124.305 191.600 C 124.473 191.600,124.946 192.774,125.357 194.209 C 125.768 195.643,126.261 196.914,126.452 197.032 C 126.643 197.150,126.800 197.777,126.800 198.424 C 126.800 199.071,126.980 199.600,127.200 199.600 C 127.707 199.600,127.742 208.938,127.239 209.905 C 127.040 210.287,126.648 211.410,126.368 212.400 C 126.087 213.390,125.620 214.484,125.329 214.831 C 125.038 215.179,124.800 215.764,124.800 216.131 C 124.800 216.499,124.620 216.800,124.400 216.800 C 124.180 216.800,124.000 217.046,124.000 217.346 C 124.000 217.647,122.740 219.201,121.200 220.800 C 119.660 222.399,118.400 223.953,118.400 224.254 C 118.400 224.554,118.258 224.800,118.083 224.800 C 117.606 224.800,115.104 227.251,113.775 229.021 C 113.129 229.882,111.880 231.322,111.000 232.222 C 108.928 234.342,106.811 236.913,106.805 237.319 C 106.802 237.495,105.540 238.881,104.000 240.400 C 102.460 241.919,101.200 243.270,101.200 243.403 C 101.200 243.536,100.161 244.669,98.890 245.922 C 97.620 247.175,96.138 248.830,95.597 249.600 C 95.056 250.370,94.070 251.584,93.407 252.298 C 90.274 255.667,89.762 256.281,89.232 257.304 C 88.920 257.907,88.530 258.400,88.365 258.400 C 87.903 258.400,85.089 261.235,83.998 262.800 C 83.461 263.570,82.206 265.010,81.208 266.000 C 80.210 266.990,78.767 268.610,78.002 269.600 C 77.237 270.590,76.429 271.606,76.206 271.858 C 75.983 272.110,74.900 273.345,73.800 274.602 C 72.700 275.859,70.718 277.992,69.396 279.344 C 68.074 280.695,66.555 282.415,66.021 283.167 C 65.487 283.918,63.914 285.698,62.525 287.122 C 61.136 288.545,60.000 289.868,60.000 290.062 C 60.000 290.256,58.963 291.447,57.696 292.707 C 56.429 293.968,54.946 295.630,54.400 296.400 C 53.855 297.170,52.281 298.928,50.904 300.307 C 49.527 301.686,48.400 302.988,48.400 303.199 C 48.400 303.410,47.452 304.532,46.294 305.691 C 45.136 306.851,43.651 308.514,42.994 309.386 C 42.337 310.258,40.585 312.207,39.100 313.716 C 37.615 315.226,36.400 316.637,36.400 316.853 C 36.400 317.068,35.361 318.269,34.090 319.522 C 32.820 320.775,31.393 322.340,30.919 323.000 C 30.445 323.660,28.875 325.421,27.429 326.914 C 25.983 328.407,24.800 329.811,24.800 330.034 C 24.800 330.256,23.540 331.681,22.000 333.200 C 20.460 334.719,19.200 336.132,19.200 336.340 C 19.200 336.548,17.895 338.071,16.300 339.726 C 14.705 341.380,12.500 343.759,11.400 345.014 C 10.300 346.268,8.995 347.715,8.500 348.229 C 8.005 348.743,7.600 349.330,7.600 349.534 C 7.600 349.737,6.880 350.645,6.000 351.552 C 5.120 352.459,4.400 353.431,4.400 353.712 C 4.400 353.993,4.040 354.483,3.600 354.800 C 3.160 355.117,2.800 355.697,2.800 356.088 C 2.800 356.480,2.620 356.800,2.400 356.800 C 2.180 356.800,2.000 357.160,2.000 357.600 C 2.000 358.040,1.820 358.400,1.600 358.400 C 1.380 358.400,1.200 358.814,1.200 359.320 C 1.200 359.826,0.975 360.465,0.700 360.740 C -0.020 361.461,-0.020 379.660,0.700 379.900 C 0.975 379.992,1.200 380.592,1.200 381.233 C 1.200 381.875,1.380 382.400,1.600 382.400 C 1.820 382.400,2.000 382.760,2.000 383.200 C 2.000 383.640,2.180 384.000,2.400 384.000 C 2.620 384.000,2.800 384.320,2.800 384.712 C 2.800 385.103,3.160 385.683,3.600 386.000 C 4.040 386.317,4.400 386.825,4.400 387.128 C 4.400 387.431,4.940 388.183,5.600 388.800 C 6.260 389.417,6.800 390.076,6.800 390.266 C 6.800 390.455,7.284 390.968,7.875 391.405 C 8.466 391.842,9.540 392.785,10.262 393.500 C 10.983 394.215,11.849 394.800,12.187 394.800 C 12.524 394.800,12.800 394.980,12.800 395.200 C 12.800 395.420,13.070 395.600,13.400 395.600 C 13.730 395.600,14.000 395.780,14.000 396.000 C 14.000 396.220,14.360 396.400,14.800 396.400 C 15.240 396.400,15.600 396.580,15.600 396.800 C 15.600 397.020,16.050 397.200,16.600 397.200 C 17.150 397.200,17.600 397.380,17.600 397.600 C 17.600 397.820,17.949 398.000,18.376 398.000 C 18.803 398.000,19.264 398.180,19.400 398.400 C 19.536 398.620,20.346 398.800,21.200 398.800 C 22.054 398.800,22.864 398.980,23.000 399.200 C 23.330 399.733,34.270 399.733,34.600 399.200 C 34.736 398.980,35.456 398.800,36.200 398.800 C 36.944 398.800,37.664 398.620,37.800 398.400 C 37.936 398.180,38.487 398.000,39.024 398.000 C 39.561 398.000,40.000 397.820,40.000 397.600 C 40.000 397.380,40.360 397.200,40.800 397.200 C 41.240 397.200,41.600 397.020,41.600 396.800 C 41.600 396.580,41.960 396.400,42.400 396.400 C 42.840 396.400,43.200 396.220,43.200 396.000 C 43.200 395.780,43.472 395.600,43.804 395.600 C 44.136 395.600,44.972 395.060,45.663 394.400 C 46.354 393.740,47.071 393.200,47.257 393.200 C 47.716 393.200,52.000 389.152,52.000 388.718 C 52.000 388.529,52.630 387.743,53.400 386.973 C 54.170 386.203,54.800 385.408,54.800 385.205 C 54.800 385.002,55.213 384.423,55.719 383.918 C 56.224 383.413,56.989 382.371,57.419 381.603 C 57.848 380.834,58.695 379.727,59.300 379.142 C 59.905 378.558,60.400 377.867,60.400 377.608 C 60.400 377.349,61.120 376.446,62.000 375.600 C 62.880 374.754,63.600 373.941,63.600 373.792 C 63.600 373.643,64.140 373.017,64.800 372.400 C 65.460 371.783,66.000 371.119,66.000 370.924 C 66.000 370.728,66.720 369.772,67.600 368.800 C 68.480 367.828,69.200 366.884,69.200 366.703 C 69.200 366.522,69.830 365.743,70.600 364.973 C 71.370 364.203,72.000 363.418,72.000 363.229 C 72.000 363.040,72.518 362.305,73.151 361.596 C 75.014 359.510,75.200 359.256,75.200 358.791 C 75.200 358.548,75.740 357.894,76.400 357.339 C 77.060 356.783,77.600 356.165,77.600 355.965 C 77.600 355.765,78.320 354.859,79.200 353.952 C 80.080 353.045,80.800 352.127,80.800 351.912 C 80.800 351.697,81.340 351.017,82.000 350.400 C 82.660 349.783,83.200 349.103,83.200 348.888 C 83.200 348.673,83.920 347.755,84.800 346.848 C 85.680 345.941,86.400 345.014,86.400 344.788 C 86.400 344.562,86.937 343.797,87.593 343.089 C 89.986 340.503,91.600 338.494,91.600 338.100 C 91.600 337.878,92.320 336.955,93.200 336.048 C 94.080 335.141,94.800 334.219,94.800 334.000 C 94.800 333.781,95.520 332.859,96.400 331.952 C 97.280 331.045,98.000 330.127,98.000 329.912 C 98.000 329.697,98.540 329.017,99.200 328.400 C 99.860 327.783,100.400 327.103,100.400 326.888 C 100.400 326.673,101.120 325.755,102.000 324.848 C 102.880 323.941,103.600 323.085,103.600 322.946 C 103.600 322.808,103.921 322.403,104.312 322.047 C 104.704 321.691,105.722 320.410,106.574 319.200 C 107.426 317.990,108.276 316.940,108.462 316.867 C 108.648 316.793,108.800 316.500,108.800 316.215 C 108.800 315.930,109.520 314.955,110.400 314.048 C 111.280 313.141,112.000 312.222,112.000 312.006 C 112.000 311.790,112.629 310.935,113.399 310.107 C 116.263 307.020,117.600 305.435,117.600 305.122 C 117.600 304.946,118.320 304.059,119.200 303.152 C 120.080 302.245,120.800 301.344,120.800 301.148 C 120.800 300.953,121.313 300.256,121.939 299.600 C 122.566 298.945,123.592 297.596,124.219 296.604 C 124.846 295.612,125.504 294.800,125.680 294.800 C 125.856 294.800,126.000 294.516,126.000 294.169 C 126.000 293.821,126.720 292.846,127.600 292.000 C 128.480 291.154,129.200 290.341,129.200 290.192 C 129.200 290.043,129.740 289.417,130.400 288.800 C 131.060 288.183,131.600 287.503,131.600 287.288 C 131.600 287.073,132.320 286.155,133.200 285.248 C 134.080 284.341,134.800 283.419,134.800 283.200 C 134.800 282.981,135.520 282.059,136.400 281.152 C 137.280 280.245,138.000 279.344,138.000 279.148 C 138.000 278.953,138.558 278.209,139.240 277.496 C 139.923 276.783,140.737 275.705,141.051 275.100 C 141.364 274.495,141.766 274.000,141.943 274.000 C 142.120 274.000,142.520 273.510,142.832 272.911 C 143.145 272.311,144.075 271.120,144.900 270.262 C 145.725 269.405,146.400 268.527,146.400 268.312 C 146.400 268.097,146.940 267.417,147.600 266.800 C 148.260 266.183,148.800 265.503,148.800 265.288 C 148.800 265.073,149.520 264.155,150.400 263.248 C 151.280 262.341,152.000 261.413,152.000 261.186 C 152.000 260.959,152.585 260.166,153.300 259.423 C 155.084 257.570,156.964 255.200,157.602 254.000 C 157.894 253.450,158.643 252.523,159.267 251.940 C 159.890 251.356,160.400 250.724,160.400 250.535 C 160.400 250.346,160.963 249.743,161.650 249.196 C 162.338 248.648,163.502 247.615,164.237 246.900 C 164.972 246.185,165.849 245.600,166.187 245.600 C 166.524 245.600,166.800 245.420,166.800 245.200 C 166.800 244.980,167.160 244.800,167.600 244.800 C 168.040 244.800,168.400 244.620,168.400 244.400 C 168.400 244.180,168.850 244.000,169.400 244.000 C 169.950 244.000,170.400 243.820,170.400 243.600 C 170.400 243.380,171.030 243.200,171.800 243.200 C 172.570 243.200,173.200 243.020,173.200 242.800 C 173.200 242.557,175.000 242.400,177.800 242.400 C 180.600 242.400,182.400 242.557,182.400 242.800 C 182.400 243.020,183.109 243.200,183.976 243.200 C 184.843 243.200,185.664 243.380,185.800 243.600 C 185.936 243.820,187.207 244.000,188.624 244.000 C 190.075 244.000,191.200 244.175,191.200 244.400 C 191.200 244.657,195.067 244.800,202.000 244.800 C 208.933 244.800,212.800 244.657,212.800 244.400 C 212.800 244.175,213.925 244.000,215.376 244.000 C 216.793 244.000,218.064 243.820,218.200 243.600 C 218.336 243.380,219.157 243.200,220.024 243.200 C 220.891 243.200,221.600 243.020,221.600 242.800 C 221.600 242.580,222.230 242.400,223.000 242.400 C 223.770 242.400,224.400 242.220,224.400 242.000 C 224.400 241.780,224.976 241.600,225.680 241.600 C 227.219 241.600,231.600 240.350,231.600 239.911 C 231.600 239.740,232.039 239.600,232.576 239.600 C 233.113 239.600,233.664 239.420,233.800 239.200 C 233.936 238.980,234.397 238.800,234.824 238.800 C 235.251 238.800,235.600 238.620,235.600 238.400 C 235.600 238.180,235.845 238.000,236.144 238.000 C 236.911 238.000,241.600 235.536,241.600 235.133 C 241.600 234.950,241.960 234.800,242.400 234.800 C 242.840 234.800,243.200 234.620,243.200 234.400 C 243.200 234.180,243.560 234.000,244.000 234.000 C 244.440 234.000,244.800 233.820,244.800 233.600 C 244.800 233.380,245.036 233.200,245.325 233.200 C 245.613 233.200,246.236 232.840,246.708 232.400 C 247.180 231.960,247.804 231.600,248.095 231.600 C 248.386 231.600,248.883 231.240,249.200 230.800 C 249.517 230.360,249.969 230.000,250.204 230.000 C 250.440 230.000,251.428 229.280,252.400 228.400 C 253.372 227.520,254.324 226.800,254.514 226.800 C 254.971 226.800,266.800 214.896,266.800 214.436 C 266.800 214.241,267.655 213.202,268.700 212.128 C 269.745 211.054,270.858 209.681,271.173 209.077 C 271.897 207.691,273.017 207.409,275.598 207.962 C 281.580 209.245,290.509 207.548,293.497 204.561 C 293.805 204.252,294.225 204.000,294.431 204.000 C 294.914 204.000,298.800 200.036,298.800 199.543 C 298.800 199.336,299.160 198.780,299.600 198.308 C 300.040 197.836,300.400 197.213,300.400 196.925 C 300.400 196.636,300.580 196.400,300.800 196.400 C 301.020 196.400,301.200 195.860,301.200 195.200 C 301.200 194.540,301.380 194.000,301.600 194.000 C 301.820 194.000,302.000 193.460,302.000 192.800 C 302.000 192.140,302.180 191.600,302.400 191.600 C 302.631 191.600,302.800 190.333,302.800 188.600 L 302.800 185.600 304.400 185.600 C 305.280 185.600,306.000 185.420,306.000 185.200 C 306.000 184.980,306.439 184.800,306.976 184.800 C 307.513 184.800,308.064 184.620,308.200 184.400 C 308.336 184.180,308.847 184.000,309.335 184.000 C 309.824 184.000,310.483 183.640,310.800 183.200 C 311.117 182.760,311.610 182.400,311.895 182.400 C 312.570 182.400,318.400 176.570,318.400 175.895 C 318.400 175.610,318.760 175.117,319.200 174.800 C 319.640 174.483,320.000 173.993,320.000 173.712 C 320.000 173.430,320.135 173.199,320.300 173.197 C 320.659 173.193,321.600 171.256,321.600 170.520 C 321.600 170.209,322.082 170.000,322.800 170.000 C 323.460 170.000,324.000 170.180,324.000 170.400 C 324.000 170.620,324.272 170.800,324.605 170.800 C 324.938 170.800,325.613 171.008,326.105 171.262 C 327.984 172.234,328.407 172.400,329.000 172.400 C 329.336 172.400,329.923 172.562,330.305 172.761 C 330.687 172.960,331.720 173.304,332.600 173.527 C 333.480 173.750,334.920 174.152,335.800 174.420 C 338.059 175.108,356.172 175.404,359.800 174.812 C 361.340 174.561,363.276 174.256,364.103 174.135 C 364.929 174.014,365.705 173.755,365.826 173.558 C 365.948 173.361,366.577 173.200,367.224 173.200 C 367.871 173.200,368.400 173.020,368.400 172.800 C 368.400 172.580,368.839 172.400,369.376 172.400 C 369.913 172.400,370.464 172.220,370.600 172.000 C 370.736 171.780,371.287 171.600,371.824 171.600 C 372.361 171.600,372.800 171.420,372.800 171.200 C 372.800 170.980,373.160 170.800,373.600 170.800 C 374.040 170.800,374.400 170.620,374.400 170.400 C 374.400 170.180,374.760 170.000,375.200 170.000 C 375.640 170.000,376.000 169.820,376.000 169.600 C 376.000 169.380,376.360 169.200,376.800 169.200 C 377.240 169.200,377.600 169.020,377.600 168.800 C 377.600 168.580,377.960 168.400,378.400 168.400 C 378.840 168.400,379.200 168.220,379.200 168.000 C 379.200 167.780,379.520 167.600,379.912 167.600 C 380.303 167.600,380.883 167.240,381.200 166.800 C 381.517 166.360,382.057 166.000,382.400 166.000 C 382.743 166.000,383.283 165.640,383.600 165.200 C 383.917 164.760,384.385 164.400,384.640 164.400 C 384.895 164.400,385.845 163.680,386.752 162.800 C 387.659 161.920,388.514 161.200,388.652 161.200 C 389.251 161.200,397.200 152.623,397.200 151.976 C 397.200 151.751,397.560 151.180,398.000 150.708 C 398.440 150.236,398.800 149.448,398.800 148.958 C 398.800 148.468,399.025 147.992,399.300 147.900 C 399.679 147.773,399.800 145.688,399.800 139.286 C 399.800 133.062,399.668 130.708,399.300 130.340 C 399.025 130.065,398.800 129.516,398.800 129.120 C 398.800 128.724,398.620 128.400,398.400 128.400 C 398.180 128.400,398.000 128.130,398.000 127.800 C 398.000 127.470,397.820 127.200,397.600 127.200 C 397.380 127.200,397.200 126.970,397.200 126.688 C 397.200 126.407,396.840 125.917,396.400 125.600 C 395.960 125.283,395.600 124.877,395.600 124.698 C 395.600 124.165,392.869 121.600,392.302 121.600 C 392.013 121.600,391.517 121.240,391.200 120.800 C 390.883 120.360,390.393 120.000,390.112 120.000 C 389.830 120.000,389.600 119.820,389.600 119.600 C 389.600 119.380,389.240 119.200,388.800 119.200 C 388.360 119.200,388.000 119.020,388.000 118.800 C 388.000 118.580,387.550 118.400,387.000 118.400 C 386.450 118.400,386.000 118.220,386.000 118.000 C 386.000 117.780,385.381 117.600,384.624 117.600 C 383.867 117.600,383.136 117.420,383.000 117.200 C 382.671 116.667,374.000 116.667,374.000 117.200 C 374.000 117.420,373.280 117.600,372.400 117.600 C 371.520 117.600,370.800 117.780,370.800 118.000 C 370.800 118.220,370.440 118.400,370.000 118.400 C 369.560 118.400,369.200 118.580,369.200 118.800 C 369.200 119.020,368.750 119.200,368.200 119.200 C 367.650 119.200,367.200 119.380,367.200 119.600 C 367.200 119.820,366.930 120.000,366.600 120.000 C 366.270 120.000,366.000 120.180,366.000 120.400 C 366.000 120.620,365.730 120.800,365.401 120.800 C 365.072 120.800,363.087 122.510,360.990 124.600 C 358.893 126.690,356.912 128.400,356.589 128.400 C 356.265 128.400,356.000 128.536,356.000 128.703 C 356.000 129.096,353.096 130.000,351.830 130.000 C 351.289 130.000,350.736 130.180,350.600 130.400 C 350.464 130.620,349.834 130.800,349.200 130.800 C 348.566 130.800,347.936 130.620,347.800 130.400 C 347.664 130.180,346.944 130.000,346.200 130.000 C 345.456 130.000,344.736 129.820,344.600 129.600 C 344.464 129.380,343.913 129.200,343.376 129.200 C 342.839 129.200,342.400 129.020,342.400 128.800 C 342.400 128.580,342.158 128.400,341.862 128.400 C 339.636 128.400,340.093 125.756,342.757 123.221 C 343.348 122.660,344.268 121.570,344.803 120.800 C 345.337 120.030,346.455 118.739,347.287 117.931 C 348.119 117.124,348.800 116.295,348.800 116.091 C 348.800 115.886,349.340 115.154,350.000 114.463 C 350.660 113.772,351.200 113.002,351.200 112.751 C 351.200 112.499,351.530 112.003,351.933 111.647 C 352.335 111.291,352.915 110.145,353.220 109.100 C 353.525 108.055,353.915 107.200,354.087 107.200 C 354.259 107.200,354.400 106.401,354.400 105.424 C 354.400 104.447,354.580 103.536,354.800 103.400 C 355.020 103.264,355.200 101.824,355.200 100.200 C 355.200 98.576,355.020 97.136,354.800 97.000 C 354.580 96.864,354.400 96.054,354.400 95.200 C 354.400 94.346,354.220 93.536,354.000 93.400 C 353.780 93.264,353.600 92.713,353.600 92.176 C 353.600 91.639,353.420 91.200,353.200 91.200 C 352.980 91.200,352.800 90.840,352.800 90.400 C 352.800 89.960,352.620 89.600,352.400 89.600 C 352.180 89.600,352.000 89.240,352.000 88.800 C 352.000 88.360,351.850 88.000,351.668 88.000 C 351.485 88.000,351.080 87.505,350.768 86.900 C 350.039 85.488,346.062 81.600,345.346 81.600 C 345.046 81.600,344.800 81.452,344.800 81.271 C 344.800 81.091,343.855 80.539,342.700 80.045 C 341.545 79.552,340.287 78.980,339.905 78.774 C 339.523 78.568,338.679 78.400,338.029 78.400 C 337.379 78.400,336.736 78.220,336.600 78.000 C 336.277 77.478,328.923 77.478,328.600 78.000 C 328.464 78.220,327.733 78.400,326.976 78.400 C 326.219 78.400,325.600 78.580,325.600 78.800 C 325.600 79.020,325.060 79.200,324.400 79.200 C 323.740 79.200,323.200 79.380,323.200 79.600 C 323.200 79.820,322.840 80.000,322.400 80.000 C 321.960 80.000,321.600 80.180,321.600 80.400 C 321.600 80.620,321.240 80.800,320.800 80.800 C 320.360 80.800,320.000 80.950,320.000 81.132 C 320.000 81.315,319.505 81.720,318.900 82.032 C 317.672 82.666,313.200 87.041,313.200 87.609 C 313.200 87.809,312.612 88.564,311.892 89.287 C 311.173 90.009,310.049 91.320,309.394 92.200 C 308.738 93.080,307.707 94.277,307.101 94.860 C 306.496 95.444,306.000 96.119,306.000 96.360 C 306.000 96.602,305.820 96.800,305.600 96.800 C 305.380 96.800,305.200 97.070,305.200 97.400 C 305.200 98.283,304.998 98.177,302.935 96.200 C 301.902 95.210,300.928 94.400,300.771 94.400 C 300.512 94.400,299.426 93.501,296.914 91.209 C 296.427 90.764,295.834 90.400,295.596 90.400 C 294.913 90.400,293.041 88.348,293.461 88.060 C 293.669 87.917,294.274 87.170,294.806 86.400 C 295.339 85.630,296.455 84.339,297.287 83.531 C 298.119 82.724,298.800 81.887,298.800 81.672 C 298.800 81.457,299.700 80.362,300.800 79.239 C 301.900 78.115,302.800 77.015,302.800 76.794 C 302.800 76.573,303.297 75.873,303.904 75.238 C 305.203 73.879,306.800 71.013,306.800 70.042 C 306.800 69.667,306.969 69.189,307.175 68.980 C 308.451 67.685,308.492 56.977,307.234 53.800 C 306.306 51.459,304.963 48.812,304.700 48.806 C 304.535 48.803,304.400 48.542,304.400 48.226 C 304.400 47.479,300.121 43.200,299.374 43.200 C 299.058 43.200,298.800 43.055,298.800 42.877 C 298.800 42.523,296.012 41.200,295.266 41.200 C 295.010 41.200,294.800 41.020,294.800 40.800 C 294.800 40.580,294.260 40.400,293.600 40.400 C 292.940 40.400,292.400 40.220,292.400 40.000 C 292.400 39.780,291.511 39.600,290.424 39.600 C 289.337 39.600,288.336 39.420,288.200 39.200 C 287.877 38.678,284.000 38.678,284.000 39.200 C 284.000 39.422,282.933 39.600,281.600 39.600 C 280.267 39.600,279.200 39.778,279.200 40.000 C 279.200 40.220,278.660 40.400,278.000 40.400 C 277.340 40.400,276.800 40.543,276.800 40.718 C 276.800 40.893,275.990 41.370,275.000 41.778 C 274.010 42.187,273.200 42.673,273.200 42.860 C 273.200 43.047,272.940 43.200,272.622 43.200 C 271.991 43.200,266.800 48.211,266.800 48.820 C 266.800 49.027,265.900 50.115,264.800 51.239 C 263.700 52.362,262.800 53.449,262.800 53.654 C 262.800 53.859,262.215 54.616,261.500 55.337 C 260.785 56.057,259.747 57.241,259.193 57.966 L 258.185 59.286 256.492 57.643 C 255.561 56.739,254.619 56.000,254.400 56.000 C 254.180 56.000,254.000 55.820,254.000 55.600 C 254.000 55.380,253.821 55.200,253.602 55.200 C 253.383 55.200,252.285 54.300,251.161 53.200 C 250.038 52.100,248.944 51.200,248.731 51.200 C 248.128 51.200,247.200 50.126,247.200 49.429 C 247.200 49.083,247.350 48.800,247.532 48.800 C 247.715 48.800,248.120 48.311,248.432 47.712 C 248.745 47.114,249.855 45.746,250.900 44.672 C 251.945 43.598,252.800 42.538,252.800 42.317 C 252.800 42.096,253.259 41.554,253.821 41.112 C 254.918 40.249,257.456 36.897,258.374 35.100 C 258.683 34.495,259.085 34.000,259.268 34.000 C 259.450 34.000,259.600 33.460,259.600 32.800 C 259.600 32.140,259.780 31.600,260.000 31.600 C 260.220 31.600,260.400 31.240,260.400 30.800 C 260.400 30.360,260.580 30.000,260.800 30.000 C 261.020 30.000,261.200 29.021,261.200 27.824 C 261.200 26.627,261.380 25.536,261.600 25.400 C 261.820 25.264,262.000 23.993,262.000 22.576 C 262.000 21.125,261.825 20.000,261.600 20.000 C 261.380 20.000,261.200 19.100,261.200 18.000 C 261.200 16.900,261.020 16.000,260.800 16.000 C 260.580 16.000,260.400 15.460,260.400 14.800 C 260.400 14.140,260.220 13.600,260.000 13.600 C 259.780 13.600,259.600 13.240,259.600 12.800 C 259.600 12.360,259.420 12.000,259.200 12.000 C 258.980 12.000,258.800 11.640,258.800 11.200 C 258.800 10.760,258.620 10.400,258.400 10.400 C 258.180 10.400,258.000 10.140,258.000 9.823 C 258.000 9.090,253.425 4.400,252.710 4.400 C 252.417 4.400,251.917 4.040,251.600 3.600 C 251.283 3.160,250.703 2.800,250.312 2.800 C 249.920 2.800,249.600 2.620,249.600 2.400 C 249.600 2.180,249.060 2.000,248.400 2.000 C 247.740 2.000,247.200 1.820,247.200 1.600 C 247.200 1.380,246.660 1.200,246.000 1.200 C 245.340 1.200,244.800 1.020,244.800 0.800 C 244.800 0.554,242.808 0.400,239.624 0.400 C 236.604 0.400,234.344 0.567,234.200 0.800 M241.925 14.613 C 245.947 16.013,247.770 18.568,247.770 22.800 C 247.770 26.230,247.191 27.254,241.207 34.400 C 234.821 42.025,235.232 41.774,232.800 39.525 C 232.250 39.016,230.810 37.790,229.600 36.802 C 228.390 35.813,227.201 34.823,226.959 34.602 C 226.716 34.381,225.598 33.480,224.475 32.600 C 222.012 30.671,221.959 30.218,223.932 27.956 C 224.775 26.990,225.755 25.840,226.111 25.400 C 235.063 14.332,237.110 12.935,241.925 14.613 M206.846 34.953 C 207.641 35.331,208.631 35.946,209.046 36.320 C 209.461 36.694,210.790 37.808,212.000 38.795 C 213.210 39.781,214.290 40.684,214.400 40.800 C 214.586 40.996,218.028 43.833,219.738 45.200 C 220.151 45.530,220.694 45.988,220.945 46.217 C 221.195 46.446,224.640 49.320,228.600 52.604 C 232.560 55.888,235.890 58.673,236.000 58.793 C 236.110 58.913,237.188 59.819,238.396 60.805 C 239.604 61.792,241.044 62.984,241.596 63.452 C 242.148 63.921,244.940 66.233,247.800 68.589 C 250.660 70.946,253.634 73.442,254.410 74.137 C 255.185 74.832,256.625 76.025,257.610 76.790 C 258.594 77.554,259.490 78.283,259.600 78.410 C 259.710 78.537,261.960 80.431,264.600 82.617 C 267.240 84.804,269.490 86.687,269.600 86.802 C 269.710 86.917,270.790 87.816,272.000 88.800 C 273.210 89.784,274.290 90.684,274.400 90.800 C 274.510 90.916,275.588 91.819,276.796 92.805 C 278.004 93.792,279.444 94.988,279.996 95.462 C 280.548 95.936,283.340 98.251,286.200 100.606 C 289.060 102.962,292.210 105.582,293.200 106.430 C 294.190 107.277,297.430 109.980,300.400 112.434 C 303.370 114.889,306.343 117.371,307.006 117.949 C 307.670 118.527,309.060 119.683,310.096 120.519 C 311.132 121.354,312.210 122.255,312.490 122.520 C 312.925 122.933,315.445 125.024,318.127 127.200 C 318.534 127.530,319.347 128.215,319.934 128.723 C 325.527 133.565,333.301 139.645,335.233 140.687 C 343.853 145.338,353.188 145.563,361.800 141.327 C 365.365 139.573,366.087 139.042,370.187 135.151 C 375.370 130.233,379.285 129.456,383.286 132.551 C 389.735 137.540,386.884 146.001,376.397 152.999 C 375.409 153.658,374.510 154.288,374.400 154.399 C 373.832 154.970,369.037 157.421,366.400 158.489 C 365.850 158.711,365.087 159.052,364.705 159.247 C 364.323 159.441,363.736 159.600,363.400 159.600 C 363.064 159.600,362.477 159.764,362.095 159.965 C 361.713 160.165,360.410 160.517,359.200 160.746 C 357.990 160.976,355.892 161.373,354.537 161.628 C 350.848 162.325,342.958 161.768,337.800 160.446 C 336.920 160.220,335.702 159.916,335.094 159.770 C 334.486 159.624,333.890 159.346,333.770 159.152 C 333.651 158.959,333.232 158.800,332.841 158.800 C 331.855 158.800,324.801 155.163,322.277 153.353 C 320.566 152.127,313.917 146.738,313.200 145.996 C 313.090 145.882,312.010 144.985,310.800 144.002 C 309.590 143.019,308.330 141.939,308.000 141.603 C 307.670 141.266,306.741 140.501,305.935 139.902 C 305.129 139.302,304.229 138.584,303.935 138.306 C 303.641 138.028,301.240 136.009,298.600 133.821 C 295.960 131.632,293.710 129.742,293.600 129.621 C 293.490 129.499,292.590 128.745,291.600 127.945 C 290.610 127.144,289.410 126.154,288.934 125.745 C 288.457 125.335,287.734 124.730,287.328 124.400 C 284.670 122.245,282.170 120.179,282.000 119.998 C 281.890 119.881,280.270 118.532,278.400 117.000 C 276.530 115.468,274.910 114.119,274.800 114.002 C 274.690 113.885,273.610 112.984,272.400 112.000 C 271.190 111.016,270.110 110.116,270.000 110.000 C 269.890 109.884,268.812 108.981,267.604 107.995 C 266.396 107.008,264.956 105.812,264.404 105.337 C 263.852 104.863,260.070 101.720,256.000 98.353 C 251.930 94.986,248.510 92.132,248.400 92.010 C 248.290 91.889,247.210 90.984,246.000 90.000 C 244.790 89.016,243.710 88.116,243.600 88.000 C 243.490 87.884,242.413 86.981,241.206 85.995 C 236.580 82.210,229.069 75.929,228.800 75.619 C 228.690 75.493,227.613 74.581,226.406 73.595 C 225.200 72.608,223.850 71.500,223.406 71.134 C 222.963 70.768,221.250 69.356,219.600 67.996 C 217.950 66.636,216.148 65.135,215.596 64.661 C 215.044 64.188,213.604 62.992,212.396 62.005 C 211.188 61.019,210.110 60.116,210.000 60.000 C 209.890 59.884,208.812 58.981,207.604 57.995 C 206.396 57.008,204.956 55.808,204.404 55.330 C 203.852 54.851,201.981 53.283,200.248 51.846 C 194.908 47.417,193.535 44.282,195.023 39.915 C 196.650 35.139,202.273 32.779,206.846 34.953 M288.540 53.289 C 293.312 54.719,295.812 60.936,293.450 65.503 C 292.956 66.458,287.957 72.950,287.215 73.600 C 287.089 73.710,285.824 75.196,284.403 76.903 C 282.982 78.610,281.685 79.960,281.522 79.903 C 280.658 79.604,268.800 69.462,268.800 69.022 C 268.800 68.472,278.278 56.980,280.308 55.068 C 282.485 53.018,285.477 52.372,288.540 53.289 M187.405 57.726 C 188.155 58.235,189.630 59.398,190.684 60.309 C 191.738 61.220,195.120 64.057,198.200 66.613 C 201.280 69.170,204.252 71.652,204.804 72.131 C 205.356 72.609,206.794 73.810,208.000 74.800 C 209.206 75.790,210.644 76.982,211.196 77.448 C 211.748 77.914,214.990 80.621,218.400 83.463 C 221.810 86.305,224.960 88.932,225.400 89.300 C 225.840 89.669,229.710 92.875,234.000 96.426 C 238.290 99.976,242.340 103.360,243.000 103.946 C 243.660 104.531,245.640 106.171,247.400 107.591 C 249.160 109.010,250.690 110.270,250.800 110.391 C 250.910 110.512,251.990 111.416,253.200 112.400 C 254.410 113.384,255.490 114.289,255.600 114.411 C 255.710 114.533,259.040 117.320,263.000 120.604 C 266.960 123.888,270.290 126.673,270.400 126.793 C 270.510 126.913,271.587 127.819,272.794 128.805 C 274.000 129.792,275.350 130.900,275.794 131.266 C 276.237 131.632,277.950 133.044,279.600 134.404 C 281.250 135.764,283.052 137.265,283.604 137.739 C 284.156 138.212,285.596 139.407,286.804 140.393 C 288.012 141.379,289.270 142.461,289.600 142.797 C 289.930 143.134,290.859 143.899,291.665 144.498 C 292.471 145.098,293.371 145.816,293.665 146.094 C 293.959 146.372,296.360 148.397,299.000 150.593 C 306.004 156.418,306.086 156.489,307.397 157.827 C 308.059 158.503,308.839 159.877,309.131 160.882 C 309.941 163.673,309.281 165.253,305.400 169.807 C 304.168 171.252,302.398 172.000,300.212 172.000 C 297.272 172.000,297.281 172.005,291.406 167.131 C 287.399 163.807,280.107 157.726,279.742 157.404 C 278.766 156.544,275.556 153.869,269.600 148.950 C 266.190 146.135,263.310 143.732,263.200 143.610 C 263.090 143.488,262.010 142.584,260.800 141.600 C 259.590 140.616,258.510 139.716,258.400 139.600 C 258.290 139.484,257.210 138.582,256.000 137.596 C 254.790 136.610,253.600 135.623,253.357 135.402 C 253.113 135.181,251.147 133.560,248.989 131.800 C 246.830 130.040,244.690 128.235,244.232 127.788 C 243.774 127.342,243.001 126.699,242.514 126.360 C 242.026 126.021,240.766 124.998,239.714 124.087 C 238.661 123.176,234.920 120.050,231.400 117.141 C 227.880 114.231,224.910 111.747,224.800 111.620 C 224.690 111.493,223.610 110.582,222.400 109.596 C 221.190 108.610,219.995 107.623,219.745 107.402 C 219.494 107.181,218.951 106.730,218.538 106.400 C 216.536 104.800,213.378 102.186,213.200 101.981 C 213.090 101.855,209.760 99.068,205.800 95.788 C 201.840 92.509,198.510 89.727,198.400 89.607 C 198.290 89.487,197.213 88.581,196.006 87.595 C 194.800 86.608,193.450 85.500,193.006 85.134 C 192.563 84.768,190.850 83.356,189.200 81.996 C 187.550 80.636,185.748 79.135,185.196 78.661 C 184.644 78.188,183.206 76.990,182.000 76.000 C 176.905 71.816,175.600 70.604,175.600 70.054 C 175.600 69.804,175.461 69.600,175.291 69.600 C 175.121 69.600,174.802 68.827,174.583 67.882 C 173.888 64.887,174.973 62.493,178.651 58.900 L 180.801 56.800 183.422 56.800 C 185.502 56.800,186.323 56.991,187.405 57.726 M139.610 67.209 C 148.752 68.311,157.855 72.129,164.000 77.438 C 164.550 77.913,167.250 80.157,170.000 82.424 C 172.750 84.692,175.090 86.649,175.200 86.773 C 175.310 86.898,176.210 87.655,177.200 88.455 C 178.190 89.256,179.390 90.246,179.866 90.655 C 180.343 91.065,181.066 91.670,181.472 92.000 C 184.146 94.168,186.675 96.267,187.110 96.680 C 187.390 96.945,188.470 97.846,189.510 98.681 C 190.549 99.517,191.490 100.300,191.600 100.421 C 191.710 100.543,192.970 101.601,194.400 102.772 C 197.474 105.290,200.757 108.038,201.366 108.602 C 201.605 108.823,202.787 109.813,203.994 110.802 C 210.416 116.066,218.546 122.834,220.017 124.141 C 220.796 124.833,222.085 125.892,222.882 126.494 C 223.679 127.096,224.571 127.818,224.865 128.098 C 225.159 128.379,228.640 131.301,232.600 134.592 C 236.560 137.882,239.890 140.673,240.000 140.793 C 240.110 140.913,241.187 141.819,242.394 142.805 C 248.322 147.654,256.912 154.804,258.417 156.141 C 259.196 156.833,260.485 157.892,261.282 158.494 C 262.079 159.096,262.971 159.818,263.265 160.099 C 263.559 160.379,265.960 162.400,268.600 164.590 C 271.240 166.779,273.490 168.667,273.600 168.785 C 273.710 168.903,274.610 169.655,275.600 170.455 C 276.590 171.256,277.790 172.246,278.266 172.655 C 278.743 173.065,279.466 173.670,279.872 174.000 C 288.379 180.898,289.200 181.955,289.200 186.000 C 289.200 193.909,280.004 197.609,274.117 192.068 C 273.493 191.481,272.327 190.508,271.526 189.906 C 270.725 189.304,269.829 188.584,269.535 188.306 C 269.241 188.028,266.840 186.009,264.200 183.821 C 261.560 181.632,259.310 179.742,259.200 179.621 C 259.090 179.499,258.190 178.745,257.200 177.945 C 256.210 177.144,255.010 176.154,254.534 175.745 C 254.057 175.335,253.334 174.730,252.928 174.400 C 250.013 172.037,247.769 170.176,247.600 169.983 C 247.490 169.857,245.870 168.515,244.000 167.000 C 242.130 165.485,240.510 164.143,240.400 164.017 C 240.290 163.892,239.210 162.984,238.000 162.000 C 236.790 161.016,235.710 160.116,235.600 160.000 C 235.490 159.884,234.410 158.982,233.200 157.996 C 231.990 157.010,230.795 156.023,230.545 155.802 C 230.294 155.581,229.754 155.126,229.345 154.791 C 226.668 152.604,214.163 142.185,214.000 142.007 C 213.890 141.887,212.812 140.981,211.604 139.995 C 210.396 139.008,208.956 137.816,208.404 137.348 C 207.852 136.879,205.060 134.567,202.200 132.211 C 199.340 129.854,196.346 127.338,195.547 126.619 C 194.748 125.899,193.719 125.048,193.260 124.727 C 192.802 124.406,191.566 123.401,190.514 122.493 C 189.461 121.585,187.160 119.643,185.400 118.176 C 183.640 116.710,181.748 115.125,181.196 114.655 C 180.644 114.185,179.204 112.992,177.996 112.005 C 176.788 111.019,175.710 110.116,175.600 110.000 C 175.490 109.884,174.412 108.981,173.204 107.995 C 171.996 107.008,170.556 105.814,170.004 105.343 C 169.452 104.871,165.580 101.653,161.400 98.192 C 157.220 94.730,153.080 91.290,152.200 90.546 C 144.441 83.994,130.246 82.632,121.414 87.592 C 117.505 89.788,117.359 89.898,113.403 93.683 C 109.858 97.075,108.144 98.000,105.408 98.000 C 99.286 98.000,95.048 91.492,97.441 85.764 C 98.482 83.272,107.263 74.800,108.804 74.800 C 109.022 74.800,109.201 74.665,109.203 74.500 C 109.205 74.335,109.610 73.994,110.103 73.743 C 122.198 67.578,129.415 65.979,139.610 67.209 M336.583 92.910 C 340.275 95.001,341.831 99.815,340.044 103.618 C 339.196 105.421,328.648 118.400,328.031 118.400 C 327.848 118.400,326.443 117.365,324.909 116.100 C 323.376 114.835,320.564 112.541,318.660 111.002 C 316.757 109.463,315.200 107.968,315.200 107.678 C 315.200 107.132,325.301 94.904,326.334 94.200 C 329.916 91.759,333.709 91.282,336.583 92.910 M158.249 112.200 C 158.516 112.420,160.910 114.391,163.567 116.579 C 168.662 120.774,168.938 121.211,167.500 122.806 C 160.730 130.311,158.672 134.645,158.670 141.400 C 158.668 151.065,163.858 158.245,173.600 162.053 C 175.714 162.879,183.657 162.756,186.200 161.858 C 191.546 159.968,194.662 157.583,199.730 151.500 C 202.087 148.671,202.194 148.670,205.512 151.463 C 206.990 152.708,209.182 154.553,210.383 155.563 C 211.583 156.573,213.172 157.942,213.912 158.605 L 215.259 159.810 211.720 164.205 C 202.340 175.852,202.367 186.452,211.800 195.771 C 221.532 205.384,235.718 203.112,246.000 190.293 C 248.460 187.226,248.404 187.224,252.276 190.502 C 254.158 192.096,256.936 194.439,258.449 195.709 C 261.807 198.529,261.811 198.248,258.351 202.400 C 251.626 210.469,244.079 217.587,239.692 220.001 C 239.091 220.331,237.970 220.988,237.200 221.461 C 227.025 227.706,214.406 231.196,202.000 231.195 C 196.301 231.194,194.196 230.959,183.800 229.163 C 175.180 227.673,167.234 229.082,159.207 233.523 C 153.431 236.719,149.919 240.572,134.000 261.178 C 133.010 262.460,129.050 267.506,125.200 272.391 C 118.835 280.467,114.228 286.329,102.898 300.767 C 100.754 303.498,97.920 307.108,96.600 308.788 C 95.280 310.468,92.086 314.533,89.503 317.821 C 86.920 321.109,81.904 327.490,78.358 332.000 C 74.811 336.510,71.485 340.740,70.967 341.400 C 70.449 342.060,67.754 345.480,64.979 349.000 C 62.203 352.520,59.454 356.030,58.869 356.800 C 58.284 357.570,56.172 360.270,54.176 362.800 C 52.179 365.330,48.140 370.460,45.199 374.200 C 39.370 381.612,38.323 382.690,35.609 384.068 C 29.011 387.420,22.130 386.243,17.141 380.909 C 15.458 379.110,14.958 378.274,13.656 375.081 C 11.881 370.728,13.792 363.421,17.862 358.998 C 18.268 358.557,19.860 356.757,21.400 354.998 C 22.940 353.239,24.290 351.710,24.400 351.600 C 24.510 351.490,25.948 349.870,27.594 348.000 C 29.241 346.130,30.682 344.510,30.796 344.400 C 30.910 344.290,33.519 341.320,36.594 337.800 C 39.669 334.280,42.460 331.130,42.795 330.800 C 43.131 330.470,44.575 328.852,46.003 327.203 C 49.052 323.686,50.734 321.774,53.207 319.015 C 54.201 317.907,56.358 315.470,58.001 313.600 C 59.645 311.730,61.085 310.110,61.203 310.000 C 61.320 309.890,63.927 306.920,66.995 303.400 C 70.063 299.880,72.853 296.730,73.195 296.400 C 73.537 296.070,74.333 295.170,74.964 294.400 C 76.006 293.129,78.646 290.139,83.607 284.613 C 84.601 283.506,86.760 281.070,88.405 279.200 C 90.051 277.330,91.577 275.600,91.798 275.356 C 92.019 275.111,92.654 274.391,93.208 273.756 C 93.762 273.120,95.652 270.970,97.408 268.977 C 106.837 258.277,109.414 255.359,109.788 254.956 C 110.014 254.711,110.729 253.901,111.375 253.156 C 113.043 251.231,118.160 245.439,118.404 245.200 C 118.515 245.090,119.865 243.562,121.404 241.805 C 122.942 240.048,124.380 238.413,124.600 238.171 C 124.820 237.929,126.170 236.412,127.600 234.800 C 129.030 233.188,130.382 231.673,130.604 231.434 C 139.544 221.836,143.412 210.352,141.396 199.400 C 140.541 194.753,140.274 193.828,138.506 189.400 C 130.162 168.497,131.256 145.873,141.428 128.981 C 142.183 127.728,142.800 126.627,142.800 126.533 C 142.800 125.724,151.218 114.821,154.715 111.100 L 155.749 110.001 156.756 110.900 C 157.311 111.395,157.982 111.980,158.249 112.200 M180.000 132.000 C 180.617 132.660,181.319 133.200,181.560 133.200 C 181.802 133.200,182.000 133.380,182.000 133.600 C 182.000 133.820,182.185 134.000,182.411 134.000 C 182.636 134.000,183.631 134.810,184.621 135.800 C 185.611 136.790,186.582 137.600,186.778 137.600 C 186.974 137.600,187.890 138.326,188.814 139.213 L 190.492 140.826 189.646 141.560 C 189.181 141.964,188.800 142.411,188.800 142.554 C 188.800 143.099,183.586 148.000,183.007 148.000 C 182.673 148.000,182.400 148.180,182.400 148.400 C 182.400 149.222,178.089 148.837,176.311 147.857 C 173.066 146.067,171.485 141.328,173.223 138.600 C 173.644 137.940,174.161 137.010,174.372 136.533 C 174.583 136.056,175.575 134.846,176.578 133.843 C 177.580 132.841,178.400 131.746,178.400 131.411 C 178.400 130.525,178.739 130.650,180.000 132.000 M229.744 173.400 C 230.364 173.840,231.521 174.785,232.314 175.500 C 233.107 176.215,233.909 176.800,234.096 176.800 C 234.283 176.800,234.878 177.242,235.418 177.782 C 236.412 178.776,236.733 180.000,236.000 180.000 C 235.780 180.000,235.600 180.270,235.600 180.600 C 235.600 180.930,235.420 181.200,235.200 181.200 C 234.980 181.200,234.800 181.384,234.800 181.609 C 234.800 182.783,229.432 187.200,228.005 187.200 C 227.562 187.200,227.200 187.380,227.200 187.600 C 227.200 187.820,226.750 188.000,226.200 188.000 C 225.650 188.000,225.200 187.820,225.200 187.600 C 225.200 187.380,224.750 187.200,224.200 187.200 C 223.650 187.200,223.200 187.020,223.200 186.800 C 223.200 186.580,222.906 186.400,222.547 186.400 C 221.811 186.400,220.546 185.089,220.185 183.952 C 220.054 183.539,219.778 183.200,219.573 183.200 C 218.777 183.200,219.146 177.409,220.000 176.492 C 220.440 176.020,220.800 175.480,220.800 175.292 C 220.800 175.104,221.360 174.421,222.045 173.775 C 222.730 173.129,223.731 171.912,224.269 171.071 L 225.247 169.541 226.932 171.071 C 227.859 171.912,229.124 172.960,229.744 173.400 " stroke="none" fill="#040404" fill-rule="evenodd"></path><path id="path3" d="M238.700 14.682 C 239.195 14.778,240.005 14.778,240.500 14.682 C 240.995 14.587,240.590 14.509,239.600 14.509 C 238.610 14.509,238.205 14.587,238.700 14.682 M243.000 15.464 C 243.660 15.811,244.739 16.569,245.399 17.148 L 246.597 18.200 245.599 17.062 C 244.644 15.974,242.798 14.782,242.120 14.816 C 241.944 14.825,242.340 15.116,243.000 15.464 M229.775 21.300 L 228.600 22.600 229.900 21.425 C 230.615 20.779,231.200 20.194,231.200 20.125 C 231.200 19.816,230.870 20.088,229.775 21.300 M226.517 33.864 C 226.861 34.423,230.800 37.754,230.800 37.486 C 230.800 37.382,229.772 36.420,228.516 35.349 C 227.260 34.277,226.361 33.609,226.517 33.864 M236.288 39.494 C 235.292 40.490,235.113 40.538,234.297 40.030 C 233.476 39.519,233.447 39.528,233.949 40.136 C 234.730 41.080,235.290 40.967,236.600 39.600 C 238.038 38.099,237.773 38.009,236.288 39.494 M269.355 68.212 C 268.990 68.769,268.764 69.298,268.853 69.387 C 268.942 69.476,269.318 69.020,269.689 68.374 C 270.514 66.936,270.269 66.817,269.355 68.212 M272.888 72.613 C 273.486 73.243,274.047 73.677,274.135 73.579 C 274.223 73.480,273.733 72.965,273.047 72.434 L 271.800 71.469 272.888 72.613 M282.278 78.613 C 281.660 79.156,281.314 79.600,281.508 79.600 C 281.702 79.600,282.283 79.150,282.800 78.600 C 283.995 77.328,283.731 77.334,282.278 78.613 M329.200 92.800 C 328.715 93.114,328.772 93.189,329.500 93.194 C 329.995 93.197,330.400 93.020,330.400 92.800 C 330.400 92.299,329.976 92.299,329.200 92.800 M334.800 92.800 C 334.800 93.020,335.098 93.200,335.462 93.200 C 335.827 93.200,336.839 93.928,337.711 94.818 C 339.545 96.689,340.139 96.702,338.569 94.836 C 337.156 93.156,334.800 91.884,334.800 92.800 M326.460 94.403 C 325.547 95.064,324.800 95.722,324.800 95.865 C 324.800 96.007,325.115 95.863,325.500 95.545 C 325.885 95.226,326.695 94.718,327.300 94.415 C 327.905 94.112,328.400 93.715,328.400 93.532 C 328.400 93.035,328.263 93.096,326.460 94.403 M339.606 97.500 C 339.603 97.995,339.780 98.400,340.000 98.400 C 340.501 98.400,340.501 97.976,340.000 97.200 C 339.686 96.715,339.611 96.772,339.606 97.500 M321.375 100.100 L 320.200 101.400 321.500 100.225 C 322.215 99.579,322.800 98.994,322.800 98.925 C 322.800 98.616,322.470 98.888,321.375 100.100 M339.600 102.605 C 339.600 103.339,338.824 104.773,337.981 105.596 C 337.641 105.928,336.926 106.823,336.394 107.584 C 335.861 108.346,334.841 109.606,334.126 110.384 C 333.412 111.163,331.723 113.108,330.373 114.706 L 327.919 117.612 326.595 116.506 C 325.867 115.898,324.630 114.866,323.846 114.213 C 322.583 113.161,320.800 112.193,320.800 112.560 C 320.800 112.633,321.475 113.150,322.300 113.708 C 323.125 114.265,324.610 115.454,325.600 116.350 C 328.113 118.622,327.809 118.778,332.868 112.614 C 333.235 112.166,334.733 110.360,336.197 108.600 C 339.410 104.737,340.987 102.000,340.000 102.000 C 339.780 102.000,339.600 102.272,339.600 102.605 M317.563 104.700 C 315.850 106.611,315.069 107.600,315.275 107.600 C 315.385 107.600,316.234 106.700,317.161 105.600 C 318.945 103.485,319.235 102.836,317.563 104.700 M155.178 110.866 C 154.706 111.200,154.726 111.235,155.289 111.054 C 155.698 110.923,156.511 111.268,157.289 111.903 C 158.393 112.803,158.475 112.826,157.804 112.049 C 156.690 110.756,155.860 110.382,155.178 110.866 M153.601 112.598 C 153.086 113.148,152.739 113.664,152.832 113.746 C 152.924 113.828,153.419 113.378,153.930 112.747 C 155.076 111.335,154.874 111.244,153.601 112.598 M158.124 141.400 C 158.126 142.720,158.201 143.212,158.290 142.493 C 158.379 141.774,158.377 140.694,158.286 140.093 C 158.195 139.492,158.122 140.080,158.124 141.400 M134.629 147.029 C 134.481 147.615,134.438 148.172,134.532 148.266 C 134.627 148.360,134.824 147.958,134.971 147.371 C 135.119 146.785,135.162 146.228,135.068 146.134 C 134.973 146.040,134.776 146.442,134.629 147.029 M201.149 149.864 C 200.648 150.470,200.677 150.481,201.478 149.982 C 202.248 149.503,202.468 149.531,203.278 150.218 L 204.200 151.000 203.438 150.100 C 202.531 149.029,201.893 148.964,201.149 149.864 M204.400 150.925 C 204.400 150.994,204.985 151.579,205.700 152.225 L 207.000 153.400 205.825 152.100 C 204.730 150.888,204.400 150.616,204.400 150.925 M160.800 152.248 C 160.800 152.458,161.353 153.253,162.029 154.015 L 163.258 155.400 162.145 153.800 C 161.533 152.920,160.980 152.125,160.916 152.033 C 160.852 151.942,160.800 152.038,160.800 152.248 M133.309 157.200 C 133.309 158.190,133.387 158.595,133.482 158.100 C 133.578 157.605,133.578 156.795,133.482 156.300 C 133.387 155.805,133.309 156.210,133.309 157.200 M164.200 156.748 C 164.860 157.477,165.940 158.446,166.600 158.901 C 168.018 159.880,167.698 159.534,165.000 157.174 C 163.522 155.881,163.313 155.770,164.200 156.748 M132.914 162.200 C 132.917 163.300,132.995 163.703,133.087 163.095 C 133.179 162.486,133.177 161.586,133.082 161.095 C 132.987 160.603,132.911 161.100,132.914 162.200 M133.309 166.800 C 133.309 167.790,133.387 168.195,133.482 167.700 C 133.578 167.205,133.578 166.395,133.482 165.900 C 133.387 165.405,133.309 165.810,133.309 166.800 M133.680 171.800 C 133.680 172.240,133.824 173.050,134.000 173.600 C 134.254 174.392,134.320 174.433,134.320 173.800 C 134.320 173.360,134.176 172.550,134.000 172.000 C 133.746 171.208,133.680 171.167,133.680 171.800 M204.531 180.200 C 204.533 181.740,204.605 182.321,204.692 181.491 C 204.779 180.661,204.777 179.401,204.689 178.691 C 204.600 177.981,204.529 178.660,204.531 180.200 M247.362 188.900 C 246.606 189.792,246.607 189.794,247.400 189.152 C 247.840 188.796,248.470 188.405,248.800 188.284 C 249.309 188.097,249.304 188.058,248.762 188.032 C 248.411 188.014,247.781 188.405,247.362 188.900 M207.843 191.927 C 208.259 192.657,208.948 193.557,209.374 193.927 C 209.824 194.318,209.666 193.931,208.996 193.000 C 207.393 190.774,206.950 190.361,207.843 191.927 M242.187 194.900 L 239.800 197.400 242.300 195.013 C 243.675 193.699,244.800 192.574,244.800 192.513 C 244.800 192.217,244.405 192.578,242.187 194.900 M254.646 193.375 C 254.778 193.719,255.014 194.000,255.172 194.000 C 255.330 194.000,256.422 194.900,257.600 196.000 C 258.778 197.100,259.890 198.000,260.071 198.000 C 260.565 198.000,260.467 198.674,259.887 199.271 C 258.928 200.259,257.544 202.400,257.873 202.388 C 258.453 202.366,260.895 198.824,260.693 198.297 C 260.585 198.017,259.127 196.654,257.451 195.269 C 255.776 193.883,254.514 193.031,254.646 193.375 M220.200 201.200 C 220.640 201.389,221.270 201.544,221.600 201.544 C 221.978 201.544,221.904 201.417,221.400 201.200 C 220.960 201.011,220.330 200.856,220.000 200.856 C 219.622 200.856,219.696 200.983,220.200 201.200 M142.144 204.800 C 142.144 206.890,142.212 207.745,142.294 206.700 C 142.376 205.655,142.376 203.945,142.294 202.900 C 142.212 201.855,142.144 202.710,142.144 204.800 M224.900 201.887 C 225.505 201.978,226.495 201.978,227.100 201.887 C 227.705 201.795,227.210 201.720,226.000 201.720 C 224.790 201.720,224.295 201.795,224.900 201.887 M256.193 203.724 C 255.748 204.206,254.758 205.402,253.993 206.382 C 251.633 209.401,246.393 214.277,242.800 216.796 C 242.030 217.336,241.051 218.098,240.625 218.489 C 240.198 218.880,239.613 219.200,239.325 219.200 C 239.036 219.200,238.800 219.380,238.800 219.600 C 238.800 219.820,238.564 220.000,238.275 220.000 C 237.987 220.000,237.364 220.360,236.892 220.800 C 236.420 221.240,235.771 221.600,235.450 221.600 C 235.129 221.600,234.807 221.742,234.733 221.915 C 234.660 222.088,233.554 222.737,232.275 223.356 C 230.996 223.976,230.033 224.566,230.134 224.667 C 230.379 224.912,235.421 222.358,238.300 220.530 C 244.433 216.636,251.229 210.615,255.943 204.900 C 257.625 202.860,257.816 201.965,256.193 203.724 M226.400 226.000 C 226.400 226.501,226.824 226.501,227.600 226.000 C 228.085 225.686,228.028 225.611,227.300 225.606 C 226.805 225.603,226.400 225.780,226.400 226.000 M224.200 226.800 C 224.064 227.020,224.223 227.200,224.553 227.200 C 224.883 227.200,225.264 227.020,225.400 226.800 C 225.536 226.580,225.377 226.400,225.047 226.400 C 224.717 226.400,224.336 226.580,224.200 226.800 M220.475 227.873 C 219.526 228.209,218.838 228.571,218.945 228.678 C 219.128 228.861,221.198 228.298,223.000 227.575 L 223.800 227.254 223.000 227.259 C 222.560 227.261,221.424 227.538,220.475 227.873 M174.000 228.222 C 175.287 228.500,183.342 228.641,182.400 228.369 C 181.850 228.210,179.600 228.083,177.400 228.086 C 175.200 228.090,173.670 228.151,174.000 228.222 M168.600 229.200 C 168.096 229.417,168.022 229.544,168.400 229.544 C 168.730 229.544,169.360 229.389,169.800 229.200 C 170.304 228.983,170.378 228.856,170.000 228.856 C 169.670 228.856,169.040 229.011,168.600 229.200 M185.600 229.200 C 186.968 229.638,188.019 229.638,187.000 229.200 C 186.560 229.011,185.840 228.862,185.400 228.868 C 184.757 228.877,184.796 228.943,185.600 229.200 M189.600 230.000 C 190.968 230.438,192.019 230.438,191.000 230.000 C 190.560 229.811,189.840 229.662,189.400 229.668 C 188.757 229.677,188.796 229.743,189.600 230.000 M212.800 230.000 C 212.008 230.254,211.967 230.320,212.600 230.320 C 213.040 230.320,213.850 230.176,214.400 230.000 C 215.192 229.746,215.233 229.680,214.600 229.680 C 214.160 229.680,213.350 229.824,212.800 230.000 M130.575 231.700 L 129.400 233.000 130.700 231.825 C 131.912 230.730,132.184 230.400,131.875 230.400 C 131.806 230.400,131.221 230.985,130.575 231.700 M194.705 230.683 C 195.202 230.779,195.922 230.775,196.305 230.675 C 196.687 230.575,196.280 230.496,195.400 230.501 C 194.520 230.505,194.207 230.587,194.705 230.683 M207.905 230.683 C 208.402 230.779,209.122 230.775,209.505 230.675 C 209.887 230.575,209.480 230.496,208.600 230.501 C 207.720 230.505,207.407 230.587,207.905 230.683 M199.500 231.096 C 200.875 231.174,203.125 231.174,204.500 231.096 C 205.875 231.018,204.750 230.954,202.000 230.954 C 199.250 230.954,198.125 231.018,199.500 231.096 M128.175 234.500 L 127.000 235.800 128.300 234.625 C 129.512 233.530,129.784 233.200,129.475 233.200 C 129.406 233.200,128.821 233.785,128.175 234.500 M154.750 235.528 C 152.998 236.261,148.659 241.038,143.601 247.800 C 142.614 249.120,141.527 250.470,141.184 250.800 C 140.842 251.130,140.126 252.030,139.594 252.800 C 139.061 253.570,138.126 254.740,137.515 255.400 C 136.904 256.060,136.403 256.759,136.402 256.953 C 136.401 257.147,136.083 257.597,135.696 257.953 C 135.308 258.309,134.501 259.259,133.902 260.065 C 133.302 260.871,132.583 261.771,132.304 262.065 C 132.025 262.359,130.717 264.039,129.398 265.797 C 128.079 267.556,126.506 269.536,125.902 270.197 C 124.904 271.290,124.535 272.000,124.964 272.000 C 125.139 272.000,128.638 267.613,138.360 255.200 C 141.720 250.910,144.769 247.036,145.135 246.591 C 145.501 246.146,146.578 244.762,147.529 243.516 C 148.480 242.270,150.683 239.889,152.425 238.225 C 154.166 236.561,155.548 235.213,155.496 235.228 C 155.443 235.244,155.107 235.379,154.750 235.528 M124.575 238.500 L 123.400 239.800 124.700 238.625 C 125.912 237.530,126.184 237.200,125.875 237.200 C 125.806 237.200,125.221 237.785,124.575 238.500 M121.781 241.700 L 120.200 243.400 121.900 241.819 C 123.481 240.348,123.784 240.000,123.481 240.000 C 123.416 240.000,122.651 240.765,121.781 241.700 M118.175 245.700 L 117.000 247.000 118.300 245.825 C 119.512 244.730,119.784 244.400,119.475 244.400 C 119.406 244.400,118.821 244.985,118.175 245.700 M115.775 248.500 L 114.600 249.800 115.900 248.625 C 117.112 247.530,117.384 247.200,117.075 247.200 C 117.006 247.200,116.421 247.785,115.775 248.500 M112.575 252.100 L 111.400 253.400 112.700 252.225 C 113.912 251.130,114.184 250.800,113.875 250.800 C 113.806 250.800,113.221 251.385,112.575 252.100 M109.578 255.500 L 108.200 257.000 109.700 255.622 C 111.096 254.338,111.384 254.000,111.078 254.000 C 111.012 254.000,110.337 254.675,109.578 255.500 M103.375 262.500 L 102.200 263.800 103.500 262.625 C 104.712 261.530,104.984 261.200,104.675 261.200 C 104.606 261.200,104.021 261.785,103.375 262.500 M100.175 266.100 L 99.000 267.400 100.300 266.225 C 101.512 265.130,101.784 264.800,101.475 264.800 C 101.406 264.800,100.821 265.385,100.175 266.100 M97.775 268.900 L 96.600 270.200 97.900 269.025 C 98.615 268.379,99.200 267.794,99.200 267.725 C 99.200 267.416,98.870 267.688,97.775 268.900 M123.789 272.915 C 123.563 273.182,122.942 274.030,122.408 274.800 C 121.875 275.570,121.158 276.470,120.816 276.800 C 120.473 277.130,119.385 278.448,118.397 279.729 C 117.408 281.009,115.654 283.259,114.497 284.729 C 113.340 286.198,111.843 288.210,111.170 289.200 L 109.947 291.000 111.197 289.600 C 111.884 288.830,114.138 286.040,116.204 283.400 C 118.271 280.760,121.059 277.205,122.401 275.500 C 124.344 273.031,125.474 270.927,123.789 272.915 M91.381 276.100 L 89.800 277.800 91.500 276.219 C 93.081 274.748,93.384 274.400,93.081 274.400 C 93.016 274.400,92.251 275.165,91.381 276.100 M88.001 279.798 C 87.486 280.348,87.139 280.864,87.232 280.946 C 87.324 281.028,87.819 280.578,88.330 279.947 C 89.476 278.535,89.274 278.444,88.001 279.798 M85.375 282.900 L 84.200 284.200 85.500 283.025 C 86.712 281.930,86.984 281.600,86.675 281.600 C 86.606 281.600,86.021 282.185,85.375 282.900 M82.425 286.169 L 81.050 287.800 82.605 286.313 C 83.460 285.496,84.079 284.762,83.980 284.683 C 83.881 284.603,83.181 285.272,82.425 286.169 M79.381 289.700 L 77.800 291.400 79.500 289.819 C 81.081 288.348,81.384 288.000,81.081 288.000 C 81.016 288.000,80.251 288.765,79.381 289.700 M108.989 291.715 C 108.763 291.982,108.136 292.830,107.595 293.600 C 106.612 294.999,106.058 295.703,104.655 297.334 C 104.245 297.810,103.435 298.830,102.855 299.600 C 102.275 300.370,101.572 301.241,101.294 301.535 C 101.016 301.829,100.296 302.729,99.694 303.535 C 99.092 304.341,98.195 305.448,97.700 305.996 C 97.205 306.544,96.800 307.116,96.800 307.267 C 96.800 307.419,96.571 307.781,96.290 308.071 C 96.010 308.362,94.885 309.763,93.790 311.184 C 91.625 313.995,90.918 314.890,90.000 315.980 C 89.670 316.373,88.950 317.283,88.400 318.003 C 87.850 318.724,86.908 319.873,86.306 320.557 C 85.705 321.241,85.210 321.927,85.206 322.082 C 85.203 322.237,84.791 322.777,84.291 323.282 C 83.792 323.787,82.945 324.830,82.411 325.600 C 81.876 326.370,81.336 327.090,81.211 327.200 C 81.086 327.310,79.854 328.840,78.473 330.600 C 77.093 332.360,75.744 334.070,75.476 334.400 C 75.208 334.730,74.550 335.630,74.013 336.400 C 73.477 337.170,72.751 338.070,72.400 338.400 C 72.049 338.730,71.329 339.630,70.800 340.400 C 70.271 341.170,69.551 342.070,69.200 342.400 C 68.849 342.730,68.123 343.630,67.587 344.400 C 67.050 345.170,66.389 346.070,66.118 346.400 C 65.847 346.730,64.703 348.170,63.575 349.600 C 62.447 351.030,61.224 352.560,60.857 353.000 C 60.489 353.440,59.750 354.430,59.213 355.200 C 58.677 355.970,57.959 356.872,57.619 357.204 C 56.948 357.859,55.888 359.600,56.161 359.600 C 56.318 359.600,59.788 355.326,62.000 352.407 C 62.550 351.681,65.856 347.468,69.346 343.044 C 72.836 338.620,76.112 334.460,76.627 333.800 C 79.183 330.520,87.254 320.247,103.756 299.265 C 106.812 295.379,109.489 291.975,109.705 291.700 C 110.210 291.058,109.534 291.072,108.989 291.715 M72.975 296.900 L 71.800 298.200 73.100 297.025 C 74.312 295.930,74.584 295.600,74.275 295.600 C 74.206 295.600,73.621 296.185,72.975 296.900 M64.175 306.900 L 63.000 308.200 64.300 307.025 C 65.512 305.930,65.784 305.600,65.475 305.600 C 65.406 305.600,64.821 306.185,64.175 306.900 M60.975 310.500 L 59.800 311.800 61.100 310.625 C 62.312 309.530,62.584 309.200,62.275 309.200 C 62.206 309.200,61.621 309.785,60.975 310.500 M58.006 313.794 C 57.263 314.561,56.732 315.250,56.827 315.325 C 56.922 315.400,57.606 314.773,58.346 313.931 C 60.029 312.018,59.812 311.931,58.006 313.794 M54.975 317.300 L 53.800 318.600 55.100 317.425 C 56.312 316.330,56.584 316.000,56.275 316.000 C 56.206 316.000,55.621 316.585,54.975 317.300 M51.978 320.700 L 50.600 322.200 52.100 320.822 C 53.496 319.538,53.784 319.200,53.478 319.200 C 53.412 319.200,52.737 319.875,51.978 320.700 M48.575 324.500 L 47.400 325.800 48.700 324.625 C 49.912 323.530,50.184 323.200,49.875 323.200 C 49.806 323.200,49.221 323.785,48.575 324.500 M46.175 327.300 L 45.000 328.600 46.300 327.425 C 47.512 326.330,47.784 326.000,47.475 326.000 C 47.406 326.000,46.821 326.585,46.175 327.300 M42.981 330.900 L 41.400 332.600 43.100 331.019 C 44.035 330.149,44.800 329.384,44.800 329.319 C 44.800 329.016,44.452 329.319,42.981 330.900 M39.978 334.300 L 38.600 335.800 40.100 334.422 C 41.496 333.138,41.784 332.800,41.478 332.800 C 41.412 332.800,40.737 333.475,39.978 334.300 M36.175 338.500 L 35.000 339.800 36.300 338.625 C 37.512 337.530,37.784 337.200,37.475 337.200 C 37.406 337.200,36.821 337.785,36.175 338.500 M33.775 341.300 L 32.600 342.600 33.900 341.425 C 35.112 340.330,35.384 340.000,35.075 340.000 C 35.006 340.000,34.421 340.585,33.775 341.300 M30.575 344.900 L 29.400 346.200 30.700 345.025 C 31.912 343.930,32.184 343.600,31.875 343.600 C 31.806 343.600,31.221 344.185,30.575 344.900 M24.575 351.700 L 23.400 353.000 24.700 351.825 C 25.912 350.730,26.184 350.400,25.875 350.400 C 25.806 350.400,25.221 350.985,24.575 351.700 M21.578 355.100 L 20.200 356.600 21.700 355.222 C 23.096 353.938,23.384 353.600,23.078 353.600 C 23.012 353.600,22.337 354.275,21.578 355.100 M18.175 358.900 L 17.000 360.200 18.300 359.025 C 19.015 358.379,19.600 357.794,19.600 357.725 C 19.600 357.416,19.270 357.688,18.175 358.900 M54.620 361.025 C 54.196 361.589,53.569 362.375,53.225 362.772 C 52.881 363.169,52.150 364.082,51.600 364.803 C 50.431 366.333,47.019 370.644,46.062 371.800 C 45.698 372.240,45.097 373.070,44.728 373.644 C 44.358 374.218,43.812 374.938,43.514 375.244 C 43.217 375.550,42.535 376.430,42.000 377.200 C 40.363 379.552,36.935 382.659,34.994 383.547 C 34.337 383.847,33.487 384.252,33.105 384.447 C 32.723 384.641,30.743 384.803,28.705 384.806 C 26.165 384.810,25.189 384.934,25.600 385.200 C 27.976 386.736,36.120 384.438,39.000 381.419 C 39.717 380.667,41.773 378.206,43.000 376.631 C 43.660 375.783,45.370 373.601,46.800 371.782 C 48.230 369.963,49.940 367.785,50.600 366.942 C 51.260 366.099,52.755 364.192,53.923 362.704 C 55.090 361.217,55.898 360.000,55.718 360.000 C 55.537 360.000,55.043 360.461,54.620 361.025 M13.449 367.015 C 13.312 367.373,13.218 368.056,13.241 368.533 C 13.267 369.081,13.403 368.886,13.610 368.003 C 13.960 366.516,13.865 365.933,13.449 367.015 " stroke="none" fill="#626262" fill-rule="evenodd"></path><path id="path4" d="M238.900 14.276 C 239.285 14.376,239.915 14.376,240.300 14.276 C 240.685 14.175,240.370 14.093,239.600 14.093 C 238.830 14.093,238.515 14.175,238.900 14.276 M247.709 22.800 C 247.709 23.790,247.787 24.195,247.882 23.700 C 247.978 23.205,247.978 22.395,247.882 21.900 C 247.787 21.405,247.709 21.810,247.709 22.800 M200.150 34.627 C 192.569 37.414,192.615 45.516,200.248 51.846 C 201.981 53.283,203.852 54.851,204.404 55.330 C 204.956 55.808,206.396 57.008,207.604 57.995 C 208.812 58.981,209.890 59.884,210.000 60.000 C 210.110 60.116,211.188 61.019,212.396 62.005 C 213.604 62.992,215.044 64.188,215.596 64.661 C 216.148 65.135,217.950 66.636,219.600 67.996 C 221.250 69.356,222.963 70.768,223.406 71.134 C 223.850 71.500,225.200 72.608,226.406 73.595 C 227.613 74.581,228.690 75.493,228.800 75.619 C 229.069 75.929,236.580 82.210,241.206 85.995 C 242.413 86.981,243.490 87.884,243.600 88.000 C 243.710 88.116,244.790 89.016,246.000 90.000 C 247.210 90.984,248.290 91.889,248.400 92.010 C 248.510 92.132,251.930 94.986,256.000 98.353 C 260.070 101.720,263.852 104.863,264.404 105.337 C 264.956 105.812,266.396 107.008,267.604 107.995 C 268.812 108.981,269.890 109.884,270.000 110.000 C 270.110 110.116,271.190 111.016,272.400 112.000 C 273.610 112.984,274.690 113.885,274.800 114.002 C 274.910 114.119,276.530 115.468,278.400 117.000 C 280.270 118.532,281.890 119.881,282.000 119.998 C 282.170 120.179,284.670 122.245,287.328 124.400 C 287.734 124.730,288.457 125.335,288.934 125.745 C 289.410 126.154,290.610 127.144,291.600 127.945 C 292.590 128.745,293.490 129.499,293.600 129.621 C 293.710 129.742,295.960 131.632,298.600 133.821 C 301.240 136.009,303.641 138.028,303.935 138.306 C 304.229 138.584,305.129 139.302,305.935 139.902 C 306.741 140.501,307.670 141.266,308.000 141.603 C 308.330 141.939,309.590 143.019,310.800 144.002 C 312.010 144.985,313.090 145.882,313.200 145.996 C 313.917 146.738,320.566 152.127,322.277 153.353 C 324.801 155.163,331.855 158.800,332.841 158.800 C 333.232 158.800,333.651 158.959,333.770 159.152 C 333.890 159.346,334.486 159.624,335.094 159.770 C 335.702 159.916,336.920 160.220,337.800 160.446 C 342.958 161.768,350.848 162.325,354.537 161.628 C 355.892 161.373,357.990 160.976,359.200 160.746 C 360.410 160.517,361.713 160.165,362.095 159.965 C 362.477 159.764,363.064 159.600,363.400 159.600 C 363.736 159.600,364.323 159.441,364.705 159.247 C 365.087 159.052,365.850 158.711,366.400 158.489 C 369.037 157.421,373.832 154.970,374.400 154.399 C 374.510 154.288,375.409 153.658,376.397 152.999 C 382.505 148.923,386.800 143.315,386.800 139.415 C 386.800 135.838,383.322 131.182,380.669 131.209 C 380.037 131.215,380.238 131.417,381.403 131.946 C 387.927 134.910,388.065 141.485,381.736 147.774 C 367.320 162.096,345.864 165.405,327.823 156.087 C 323.577 153.894,321.673 152.475,310.824 143.422 C 306.328 139.670,297.058 131.950,290.224 126.266 C 283.391 120.582,277.348 115.542,276.796 115.066 C 276.244 114.590,274.806 113.390,273.600 112.400 C 272.394 111.410,270.956 110.217,270.404 109.748 C 267.689 107.446,254.725 96.652,242.400 86.432 C 239.870 84.335,237.710 82.522,237.600 82.404 C 237.490 82.286,236.412 81.381,235.204 80.395 C 233.996 79.408,232.556 78.210,232.004 77.733 C 231.452 77.257,225.408 72.217,218.574 66.533 C 193.845 45.968,195.200 47.352,195.200 42.658 C 195.200 35.464,203.203 31.998,208.836 36.752 C 209.586 37.385,218.030 44.421,227.600 52.388 C 237.170 60.354,245.452 67.261,246.004 67.736 C 246.556 68.211,247.994 69.410,249.200 70.400 C 250.406 71.390,251.844 72.589,252.396 73.065 C 252.948 73.541,258.980 78.556,265.800 84.210 C 272.620 89.865,278.741 94.965,279.401 95.545 C 280.062 96.125,281.592 97.408,282.801 98.395 C 284.011 99.381,285.090 100.289,285.200 100.411 C 285.310 100.533,288.547 103.235,292.394 106.416 C 296.241 109.597,306.411 118.059,314.994 125.220 C 323.577 132.380,331.680 138.968,333.000 139.859 C 336.584 142.277,343.231 144.726,345.059 144.303 C 345.509 144.199,345.171 144.022,344.200 143.853 C 337.458 142.679,332.443 139.553,319.934 128.723 C 319.347 128.215,318.534 127.530,318.127 127.200 C 315.445 125.024,312.925 122.933,312.490 122.520 C 312.210 122.255,311.132 121.354,310.096 120.519 C 309.060 119.683,307.670 118.527,307.006 117.949 C 306.343 117.371,303.370 114.889,300.400 112.434 C 297.430 109.980,294.190 107.277,293.200 106.430 C 292.210 105.582,289.060 102.962,286.200 100.606 C 283.340 98.251,280.548 95.936,279.996 95.462 C 279.444 94.988,278.004 93.792,276.796 92.805 C 275.588 91.819,274.510 90.916,274.400 90.800 C 274.290 90.684,273.210 89.784,272.000 88.800 C 270.790 87.816,269.710 86.917,269.600 86.802 C 269.490 86.687,267.240 84.804,264.600 82.617 C 261.960 80.431,259.710 78.537,259.600 78.410 C 259.490 78.283,258.594 77.554,257.610 76.790 C 256.625 76.025,255.185 74.832,254.410 74.137 C 253.634 73.442,250.660 70.946,247.800 68.589 C 244.940 66.233,242.148 63.921,241.596 63.452 C 241.044 62.984,239.604 61.792,238.396 60.805 C 237.188 59.819,236.110 58.913,236.000 58.793 C 235.890 58.673,232.560 55.888,228.600 52.604 C 224.640 49.320,221.195 46.446,220.945 46.217 C 220.694 45.988,220.151 45.530,219.738 45.200 C 218.028 43.833,214.586 40.996,214.400 40.800 C 214.290 40.684,213.210 39.781,212.000 38.795 C 210.790 37.808,209.461 36.694,209.046 36.320 C 206.837 34.328,202.967 33.591,200.150 34.627 M285.100 53.082 C 285.595 53.178,286.405 53.178,286.900 53.082 C 287.395 52.987,286.990 52.909,286.000 52.909 C 285.010 52.909,284.605 52.987,285.100 53.082 M178.651 58.900 C 174.973 62.493,173.888 64.887,174.583 67.882 C 174.802 68.827,175.121 69.600,175.291 69.600 C 175.461 69.600,175.600 69.804,175.600 70.054 C 175.600 70.604,176.905 71.816,182.000 76.000 C 183.206 76.990,184.644 78.188,185.196 78.661 C 185.748 79.135,187.550 80.636,189.200 81.996 C 190.850 83.356,192.563 84.768,193.006 85.134 C 193.450 85.500,194.800 86.608,196.006 87.595 C 197.213 88.581,198.290 89.487,198.400 89.607 C 198.510 89.727,201.840 92.509,205.800 95.788 C 209.760 99.068,213.090 101.855,213.200 101.981 C 213.378 102.186,216.536 104.800,218.538 106.400 C 218.951 106.730,219.494 107.181,219.745 107.402 C 219.995 107.623,221.190 108.610,222.400 109.596 C 223.610 110.582,224.690 111.493,224.800 111.620 C 224.910 111.747,227.880 114.231,231.400 117.141 C 234.920 120.050,238.661 123.176,239.714 124.087 C 240.766 124.998,242.026 126.021,242.514 126.360 C 243.001 126.699,243.774 127.342,244.232 127.788 C 244.690 128.235,246.830 130.040,248.989 131.800 C 251.147 133.560,253.113 135.181,253.357 135.402 C 253.600 135.623,254.790 136.610,256.000 137.596 C 257.210 138.582,258.290 139.484,258.400 139.600 C 258.510 139.716,259.590 140.616,260.800 141.600 C 262.010 142.584,263.090 143.488,263.200 143.610 C 263.310 143.732,266.190 146.135,269.600 148.950 C 275.556 153.869,278.766 156.544,279.742 157.404 C 280.107 157.726,287.399 163.807,291.406 167.131 C 297.281 172.005,297.272 172.000,300.212 172.000 C 302.398 172.000,304.168 171.252,305.400 169.807 C 310.933 163.315,310.854 160.520,304.997 155.593 C 304.339 155.038,301.640 152.788,299.000 150.593 C 296.360 148.397,293.959 146.372,293.665 146.094 C 293.371 145.816,292.471 145.098,291.665 144.498 C 290.859 143.899,289.930 143.134,289.600 142.797 C 289.270 142.461,288.012 141.379,286.804 140.393 C 285.596 139.407,284.156 138.212,283.604 137.739 C 283.052 137.265,281.250 135.764,279.600 134.404 C 277.950 133.044,276.237 131.632,275.794 131.266 C 275.350 130.900,274.000 129.792,272.794 128.805 C 271.587 127.819,270.510 126.913,270.400 126.793 C 270.290 126.673,266.960 123.888,263.000 120.604 C 259.040 117.320,255.710 114.533,255.600 114.411 C 255.490 114.289,254.410 113.384,253.200 112.400 C 251.990 111.416,250.910 110.512,250.800 110.391 C 250.690 110.270,249.160 109.010,247.400 107.591 C 245.640 106.171,243.660 104.531,243.000 103.946 C 242.340 103.360,238.290 99.976,234.000 96.426 C 229.710 92.875,225.840 89.669,225.400 89.300 C 224.960 88.932,221.810 86.305,218.400 83.463 C 214.990 80.621,211.748 77.914,211.196 77.448 C 210.644 76.982,209.206 75.790,208.000 74.800 C 206.794 73.810,205.356 72.609,204.804 72.131 C 204.252 71.652,201.280 69.170,198.200 66.613 C 195.120 64.057,191.738 61.220,190.684 60.309 C 187.048 57.165,186.293 56.800,183.422 56.800 L 180.801 56.800 178.651 58.900 M186.938 58.076 C 188.026 58.831,202.345 70.589,205.199 73.071 C 205.749 73.550,206.938 74.540,207.841 75.271 C 208.743 76.002,214.863 81.090,221.441 86.577 C 228.018 92.065,235.470 98.275,237.999 100.377 C 240.529 102.480,243.049 104.586,243.599 105.058 C 244.150 105.530,251.350 111.532,259.600 118.397 C 267.850 125.262,275.052 131.266,275.604 131.739 C 276.156 132.213,277.596 133.408,278.804 134.395 C 280.012 135.381,281.090 136.284,281.200 136.400 C 281.310 136.516,282.388 137.419,283.596 138.405 C 284.804 139.392,286.244 140.588,286.796 141.062 C 287.348 141.536,292.168 145.552,297.507 149.986 C 308.557 159.165,308.603 159.217,308.593 162.644 C 308.586 164.976,308.478 165.258,306.750 167.460 C 302.620 172.722,299.189 173.077,294.131 168.766 C 293.069 167.860,291.837 166.823,291.394 166.460 C 290.950 166.097,289.600 164.992,288.394 164.005 C 287.187 163.019,286.110 162.116,286.000 162.000 C 285.890 161.884,284.812 160.981,283.604 159.995 C 282.396 159.008,280.956 157.811,280.404 157.335 C 279.852 156.860,275.350 153.104,270.400 148.989 C 265.450 144.874,260.500 140.742,259.400 139.807 C 258.300 138.873,255.600 136.622,253.400 134.805 C 251.200 132.988,248.590 130.820,247.600 129.988 C 246.610 129.155,241.750 125.112,236.800 121.002 C 231.850 116.892,227.348 113.140,226.796 112.664 C 226.244 112.189,224.806 110.990,223.600 110.000 C 222.394 109.010,220.956 107.813,220.404 107.339 C 219.449 106.520,208.913 97.738,207.555 96.629 C 204.996 94.539,187.759 80.182,187.600 80.008 C 187.490 79.887,186.410 78.984,185.200 78.000 C 183.990 77.016,182.910 76.113,182.800 75.993 C 182.690 75.873,181.216 74.640,179.523 73.253 C 177.831 71.866,176.179 70.323,175.853 69.824 C 171.957 63.879,181.195 54.090,186.938 58.076 M129.000 67.228 C 121.860 68.209,119.075 69.169,110.103 73.743 C 109.610 73.994,109.205 74.335,109.203 74.500 C 109.201 74.665,109.022 74.800,108.804 74.800 C 107.263 74.800,98.482 83.272,97.441 85.764 C 95.048 91.492,99.286 98.000,105.408 98.000 C 108.144 98.000,109.858 97.075,113.403 93.683 C 115.176 91.987,116.994 90.330,117.443 90.000 C 119.555 88.450,123.333 86.522,125.400 85.941 C 126.280 85.694,126.786 85.414,126.524 85.320 C 124.759 84.686,117.675 88.885,113.170 93.235 C 107.627 98.587,103.165 99.055,99.329 94.686 C 95.709 90.562,96.545 86.150,101.949 80.866 C 117.800 65.364,141.728 62.974,159.881 75.079 C 161.998 76.490,188.915 98.504,192.556 101.802 C 192.800 102.023,193.990 103.010,195.200 103.996 C 196.410 104.982,197.490 105.890,197.600 106.014 C 197.710 106.137,210.850 117.094,226.800 130.362 C 242.750 143.630,256.250 154.877,256.800 155.353 C 257.350 155.830,263.200 160.705,269.800 166.186 C 285.970 179.615,287.203 180.724,288.054 182.597 C 290.918 188.901,284.825 195.961,278.317 193.880 C 276.474 193.291,257.254 177.873,242.396 165.065 C 241.844 164.589,240.406 163.390,239.200 162.400 C 237.994 161.410,236.556 160.219,236.004 159.752 C 233.375 157.532,216.105 143.151,208.000 136.431 C 205.470 134.334,203.310 132.522,203.200 132.404 C 203.090 132.286,202.012 131.381,200.804 130.395 C 199.596 129.408,198.156 128.212,197.604 127.738 C 197.052 127.264,189.490 120.972,180.800 113.756 C 172.110 106.539,164.910 100.534,164.800 100.412 C 164.630 100.223,162.312 98.303,159.473 96.000 C 159.066 95.670,158.253 94.987,157.666 94.482 C 151.017 88.759,144.133 84.645,142.318 85.311 C 142.033 85.416,142.340 85.636,143.000 85.801 C 145.067 86.318,150.529 89.135,152.200 90.546 C 153.080 91.290,157.220 94.730,161.400 98.192 C 165.580 101.653,169.452 104.871,170.004 105.343 C 170.556 105.814,171.996 107.008,173.204 107.995 C 174.412 108.981,175.490 109.884,175.600 110.000 C 175.710 110.116,176.788 111.019,177.996 112.005 C 179.204 112.992,180.644 114.185,181.196 114.655 C 181.748 115.125,183.640 116.710,185.400 118.176 C 187.160 119.643,189.461 121.585,190.514 122.493 C 191.566 123.401,192.802 124.406,193.260 124.727 C 193.719 125.048,194.748 125.899,195.547 126.619 C 196.346 127.338,199.340 129.854,202.200 132.211 C 205.060 134.567,207.852 136.879,208.404 137.348 C 208.956 137.816,210.396 139.008,211.604 139.995 C 212.812 140.981,213.890 141.887,214.000 142.007 C 214.163 142.185,226.668 152.604,229.345 154.791 C 229.754 155.126,230.294 155.581,230.545 155.802 C 230.795 156.023,231.990 157.010,233.200 157.996 C 234.410 158.982,235.490 159.884,235.600 160.000 C 235.710 160.116,236.790 161.016,238.000 162.000 C 239.210 162.984,240.290 163.892,240.400 164.017 C 240.510 164.143,242.130 165.485,244.000 167.000 C 245.870 168.515,247.490 169.857,247.600 169.983 C 247.769 170.176,250.013 172.037,252.928 174.400 C 253.334 174.730,254.057 175.335,254.534 175.745 C 255.010 176.154,256.210 177.144,257.200 177.945 C 258.190 178.745,259.090 179.499,259.200 179.621 C 259.310 179.742,261.560 181.632,264.200 183.821 C 266.840 186.009,269.241 188.028,269.535 188.306 C 269.829 188.584,270.725 189.304,271.526 189.906 C 272.327 190.508,273.493 191.481,274.117 192.068 C 280.004 197.609,289.200 193.909,289.200 186.000 C 289.200 181.955,288.379 180.898,279.872 174.000 C 279.466 173.670,278.743 173.065,278.266 172.655 C 277.790 172.246,276.590 171.256,275.600 170.455 C 274.610 169.655,273.710 168.903,273.600 168.785 C 273.490 168.667,271.240 166.779,268.600 164.590 C 265.960 162.400,263.559 160.379,263.265 160.099 C 262.971 159.818,262.079 159.096,261.282 158.494 C 260.485 157.892,259.196 156.833,258.417 156.141 C 256.912 154.804,248.322 147.654,242.394 142.805 C 241.187 141.819,240.110 140.913,240.000 140.793 C 239.890 140.673,236.560 137.882,232.600 134.592 C 228.640 131.301,225.159 128.379,224.865 128.098 C 224.571 127.818,223.679 127.096,222.882 126.494 C 222.085 125.892,220.796 124.833,220.017 124.141 C 218.546 122.834,210.416 116.066,203.994 110.802 C 202.787 109.813,201.605 108.823,201.366 108.602 C 200.757 108.038,197.474 105.290,194.400 102.772 C 192.970 101.601,191.710 100.543,191.600 100.421 C 191.490 100.300,190.549 99.517,189.510 98.681 C 188.470 97.846,187.390 96.945,187.110 96.680 C 186.675 96.267,184.146 94.168,181.472 92.000 C 181.066 91.670,180.343 91.065,179.866 90.655 C 179.390 90.246,178.190 89.256,177.200 88.455 C 176.210 87.655,175.310 86.898,175.200 86.773 C 175.090 86.649,172.750 84.692,170.000 82.424 C 167.250 80.157,164.550 77.913,164.000 77.438 C 155.147 69.789,140.804 65.605,129.000 67.228 M133.091 84.289 C 133.801 84.377,135.061 84.379,135.891 84.292 C 136.721 84.205,136.140 84.133,134.600 84.131 C 133.060 84.129,132.381 84.200,133.091 84.289 M127.800 84.800 C 126.747 85.253,128.821 85.253,130.600 84.800 C 131.747 84.508,131.729 84.494,130.200 84.475 C 129.320 84.465,128.240 84.611,127.800 84.800 M138.600 84.800 C 140.397 85.257,142.064 85.257,141.000 84.800 C 140.560 84.611,139.570 84.465,138.800 84.475 L 137.400 84.495 138.600 84.800 M340.524 100.200 C 340.526 101.520,340.601 102.012,340.690 101.293 C 340.779 100.574,340.777 99.494,340.686 98.893 C 340.595 98.292,340.522 98.880,340.524 100.200 M337.408 107.100 C 336.549 108.145,336.260 108.640,336.766 108.200 C 337.661 107.422,339.398 105.200,339.112 105.200 C 339.034 105.200,338.267 106.055,337.408 107.100 M334.959 110.100 C 333.207 112.121,332.687 112.800,332.890 112.800 C 333.007 112.800,333.767 111.990,334.579 111.000 C 336.081 109.166,336.379 108.463,334.959 110.100 M328.894 117.212 C 328.175 117.865,327.737 118.400,327.919 118.400 C 328.101 118.400,328.768 117.860,329.400 117.200 C 330.870 115.665,330.586 115.672,328.894 117.212 M377.505 131.083 C 378.002 131.179,378.722 131.175,379.105 131.075 C 379.487 130.975,379.080 130.896,378.200 130.901 C 377.320 130.905,377.007 130.987,377.505 131.083 M374.200 131.668 C 373.760 131.912,371.954 133.482,370.187 135.156 C 365.811 139.302,363.343 140.961,359.400 142.407 C 358.960 142.568,358.097 142.903,357.481 143.150 C 356.866 143.398,355.876 143.613,355.281 143.628 C 354.687 143.644,353.840 143.825,353.400 144.031 C 351.471 144.936,356.826 143.840,359.658 142.750 C 363.708 141.193,366.758 139.167,370.400 135.616 C 372.050 134.007,374.120 132.359,375.000 131.954 C 376.013 131.488,376.306 131.219,375.800 131.221 C 375.360 131.223,374.640 131.424,374.200 131.668 M158.493 144.000 C 158.493 144.770,158.575 145.085,158.676 144.700 C 158.776 144.315,158.776 143.685,158.676 143.300 C 158.575 142.915,158.493 143.230,158.493 144.000 M347.500 144.693 C 348.435 144.777,349.965 144.777,350.900 144.693 C 351.835 144.609,351.070 144.540,349.200 144.540 C 347.330 144.540,346.565 144.609,347.500 144.693 M164.600 156.800 C 165.459 157.680,166.252 158.400,166.362 158.400 C 166.472 158.400,165.859 157.680,165.000 156.800 C 164.141 155.920,163.348 155.200,163.238 155.200 C 163.128 155.200,163.741 155.920,164.600 156.800 M132.914 158.600 C 132.917 159.700,132.995 160.103,133.087 159.495 C 133.179 158.886,133.177 157.986,133.082 157.495 C 132.987 157.003,132.911 157.500,132.914 158.600 M178.307 163.090 C 179.026 163.179,180.106 163.177,180.707 163.086 C 181.308 162.995,180.720 162.922,179.400 162.924 C 178.080 162.926,177.588 163.001,178.307 163.090 M132.914 165.800 C 132.917 166.900,132.995 167.303,133.087 166.695 C 133.179 166.086,133.177 165.186,133.082 164.695 C 132.987 164.203,132.911 164.700,132.914 165.800 M254.600 192.800 C 255.459 193.680,256.252 194.400,256.362 194.400 C 256.472 194.400,255.859 193.680,255.000 192.800 C 254.141 191.920,253.348 191.200,253.238 191.200 C 253.128 191.200,253.741 191.920,254.600 192.800 M210.000 194.525 C 210.000 194.594,210.585 195.179,211.300 195.825 L 212.600 197.000 211.425 195.700 C 210.330 194.488,210.000 194.216,210.000 194.525 M258.800 196.330 C 260.873 198.232,260.969 198.402,260.455 199.274 C 259.940 200.150,259.949 200.164,260.610 199.531 C 261.559 198.623,261.244 198.033,258.740 196.026 L 256.600 194.311 258.800 196.330 M256.834 203.753 L 255.869 205.000 257.013 203.912 C 257.643 203.314,258.077 202.753,257.979 202.665 C 257.880 202.577,257.365 203.067,256.834 203.753 M254.378 206.700 L 253.000 208.200 254.500 206.822 C 255.896 205.538,256.184 205.200,255.878 205.200 C 255.812 205.200,255.137 205.875,254.378 206.700 M249.935 211.408 C 248.690 212.614,247.796 213.600,247.949 213.600 C 248.102 213.600,249.205 212.610,250.400 211.400 C 253.209 208.556,252.876 208.562,249.935 211.408 M240.838 218.818 C 239.649 219.688,238.815 220.400,238.985 220.400 C 239.336 220.400,243.200 217.619,243.200 217.366 C 243.200 217.100,243.108 217.156,240.838 218.818 M151.391 239.300 L 148.200 242.600 151.500 239.409 C 154.565 236.446,154.982 236.000,154.691 236.000 C 154.630 236.000,153.145 237.485,151.391 239.300 M140.332 252.700 C 138.516 254.849,136.657 257.321,137.021 257.102 C 137.502 256.814,141.340 252.000,141.089 252.000 C 140.998 252.000,140.658 252.315,140.332 252.700 M106.975 258.100 L 105.800 259.400 107.100 258.225 C 108.312 257.130,108.584 256.800,108.275 256.800 C 108.206 256.800,107.621 257.385,106.975 258.100 M132.175 263.068 C 131.559 263.876,131.259 264.411,131.509 264.256 C 132.021 263.940,133.753 261.600,133.475 261.600 C 133.376 261.600,132.791 262.261,132.175 263.068 M100.975 264.900 L 99.800 266.200 101.100 265.025 C 102.312 263.930,102.584 263.600,102.275 263.600 C 102.206 263.600,101.621 264.185,100.975 264.900 M124.800 272.400 C 124.103 273.280,123.623 274.000,123.733 274.000 C 123.843 274.000,124.503 273.280,125.200 272.400 C 125.897 271.520,126.377 270.800,126.267 270.800 C 126.157 270.800,125.497 271.520,124.800 272.400 M117.375 281.868 C 116.759 282.676,116.459 283.211,116.709 283.056 C 117.221 282.740,118.953 280.400,118.675 280.400 C 118.576 280.400,117.991 281.061,117.375 281.868 M111.377 289.500 C 109.254 292.154,109.077 292.400,109.292 292.400 C 109.396 292.400,110.330 291.320,111.368 290.000 C 112.405 288.680,113.173 287.600,113.075 287.600 C 112.977 287.600,112.212 288.455,111.377 289.500 M76.575 292.500 L 75.400 293.800 76.700 292.625 C 77.912 291.530,78.184 291.200,77.875 291.200 C 77.806 291.200,77.221 291.785,76.575 292.500 M105.027 297.700 C 103.986 299.075,103.703 299.570,104.397 298.800 C 105.845 297.193,107.334 295.200,107.086 295.200 C 106.994 295.200,106.067 296.325,105.027 297.700 M70.575 299.300 L 69.400 300.600 70.700 299.425 C 71.912 298.330,72.184 298.000,71.875 298.000 C 71.806 298.000,71.221 298.585,70.575 299.300 M99.144 305.100 C 97.993 306.489,97.506 307.200,97.704 307.200 C 97.814 307.200,98.386 306.570,98.973 305.800 C 100.063 304.371,100.195 303.832,99.144 305.100 M58.575 312.900 L 57.400 314.200 58.700 313.025 C 59.912 311.930,60.184 311.600,59.875 311.600 C 59.806 311.600,59.221 312.185,58.575 312.900 M91.932 314.300 C 90.116 316.449,88.257 318.921,88.621 318.702 C 89.102 318.414,92.940 313.600,92.689 313.600 C 92.598 313.600,92.258 313.915,91.932 314.300 M52.575 319.700 L 51.400 321.000 52.700 319.825 C 53.912 318.730,54.184 318.400,53.875 318.400 C 53.806 318.400,53.221 318.985,52.575 319.700 M83.775 324.668 C 83.159 325.476,82.859 326.011,83.109 325.856 C 83.621 325.540,85.353 323.200,85.075 323.200 C 84.976 323.200,84.391 323.861,83.775 324.668 M78.744 331.100 C 77.593 332.489,77.106 333.200,77.304 333.200 C 77.414 333.200,77.986 332.570,78.573 331.800 C 79.663 330.371,79.795 329.832,78.744 331.100 M37.375 336.900 L 36.200 338.200 37.500 337.025 C 38.712 335.930,38.984 335.600,38.675 335.600 C 38.606 335.600,38.021 336.185,37.375 336.900 M68.975 343.468 C 68.359 344.276,68.059 344.811,68.309 344.656 C 68.821 344.340,70.553 342.000,70.275 342.000 C 70.176 342.000,69.591 342.661,68.975 343.468 M28.175 347.300 L 27.000 348.600 28.300 347.425 C 29.512 346.330,29.784 346.000,29.475 346.000 C 29.406 346.000,28.821 346.585,28.175 347.300 M63.944 349.900 C 62.793 351.289,62.306 352.000,62.504 352.000 C 62.614 352.000,63.186 351.370,63.773 350.600 C 64.863 349.171,64.995 348.632,63.944 349.900 M56.627 359.300 C 55.586 360.675,55.303 361.170,55.997 360.400 C 57.445 358.793,58.934 356.800,58.686 356.800 C 58.594 356.800,57.667 357.925,56.627 359.300 M50.744 366.700 C 49.593 368.089,49.106 368.800,49.304 368.800 C 49.414 368.800,49.986 368.170,50.573 367.400 C 51.663 365.971,51.795 365.432,50.744 366.700 M40.401 379.798 C 39.886 380.348,39.539 380.864,39.632 380.946 C 39.724 381.028,40.219 380.578,40.730 379.947 C 41.876 378.535,41.674 378.444,40.401 379.798 M25.276 385.660 C 26.505 386.006,30.424 386.014,31.283 385.672 C 31.658 385.522,30.252 385.400,28.159 385.400 C 26.065 385.400,24.768 385.517,25.276 385.660 " stroke="none" fill="#5c5113" fill-rule="evenodd"></path></g></svg>